<svg id="Layer_1" data-name="Layer 1" xmlns="http://www.w3.org/2000/svg" viewBox="0 0 200 50"><defs><style>.cls-1{fill:#5bc6e8;}.cls-2{fill:#58c140;}.cls-3{fill:none;stroke:#58c140;stroke-miterlimit:10;stroke-width:2.73px;}</style></defs><title>GrAttitude_Logo_Color</title><g id="_Group_" data-name="&lt;Group&gt;"><path id="_Compound_Path_" data-name="&lt;Compound Path&gt;" class="cls-1" d="M14.58,39.72l1.15-2a10.81,10.81,0,0,0,6.51,2.16c3.73,0,6.15-2.06,6.15-6v-2a8,8,0,0,1-6.64,3.57,7.83,7.83,0,0,1-8-7.92V27.47a8,8,0,0,1,14.57-4.58v-3h2.52v14a8.15,8.15,0,0,1-2.16,6,8.9,8.9,0,0,1-6.45,2.26A13.27,13.27,0,0,1,14.58,39.72ZM28.45,27.51V27.44c0-3.47-3-5.73-6.22-5.73a5.6,5.6,0,0,0-5.86,5.7v0.07a5.73,5.73,0,0,0,5.86,5.76A6,6,0,0,0,28.45,27.51Z"/><path id="_Compound_Path_2" data-name="&lt;Compound Path&gt;" class="cls-1" d="M36.5,19.85H39v4.42c1.24-2.81,3.7-4.84,6.91-4.71v2.72h-0.2C42,22.27,39,24.92,39,30v6.74H36.5V19.85Z"/><path id="_Compound_Path_3" data-name="&lt;Compound Path&gt;" class="cls-2" d="M60,7.93h3L76.1,36.77H72.62L69.27,29.2c-3.73,3-11.5,3.19-15.59,0l-3.4,7.57H47Zm8.25,18.71-6.78-15L54.67,26.6C58.44,29.33,63.47,29.74,68.27,26.64Z"/><path id="_Compound_Path_4" data-name="&lt;Compound Path&gt;" class="cls-2" d="M81.15,32.29V22.07H78.79V19.85h2.36V14.74h2.52v5.11H89v2.23H83.67V32c0,2.06,1.15,2.81,2.85,2.81A5.3,5.3,0,0,0,89,34.18v2.16a6.34,6.34,0,0,1-3,.72C83.21,37.06,81.15,35.72,81.15,32.29Z"/><path id="_Compound_Path_5" data-name="&lt;Compound Path&gt;" class="cls-2" d="M94.76,32.29V22.07H92.41V19.85h2.36V14.74h2.52v5.11h5.37v2.23H97.28V32c0,2.06,1.15,2.81,2.85,2.81a5.3,5.3,0,0,0,2.45-.59v2.16a6.34,6.34,0,0,1-3,.72C96.83,37.06,94.76,35.72,94.76,32.29Z"/><path id="_Compound_Path_6" data-name="&lt;Compound Path&gt;" class="cls-2" d="M107.36,13.37h2.88v2.78h-2.88V13.37Zm0.16,6.48H110V36.77h-2.52V19.85Z"/><path id="_Compound_Path_7" data-name="&lt;Compound Path&gt;" class="cls-2" d="M117,32.29V22.07h-2.36V19.85H117V14.74h2.52v5.11h5.37v2.23h-5.37V32c0,2.06,1.15,2.81,2.85,2.81a5.3,5.3,0,0,0,2.45-.59v2.16a6.34,6.34,0,0,1-3,.72C119.08,37.06,117,35.72,117,32.29Z"/><path id="_Compound_Path_8" data-name="&lt;Compound Path&gt;" class="cls-2" d="M129.1,30.35V19.85h2.52v9.89c0,3.14,1.7,5.11,4.68,5.11a5,5,0,0,0,5.07-5.3V19.85h2.49V36.77h-2.49V33.82a6.45,6.45,0,0,1-5.79,3.31C131.48,37.13,129.1,34.38,129.1,30.35Z"/><path id="_Compound_Path_9" data-name="&lt;Compound Path&gt;" class="cls-2" d="M148.54,28.36V28.29c0-5.53,4-8.81,8.08-8.81a7.64,7.64,0,0,1,6.48,3.6V12.87h2.52V36.77H163.1v-3.4a7.61,7.61,0,0,1-6.48,3.76C152.56,37.13,148.54,33.92,148.54,28.36Zm14.66,0V28.26a6.29,6.29,0,0,0-6.12-6.51c-3.27,0-6,2.42-6,6.51v0.07c0,4,2.78,6.55,6,6.55A6.32,6.32,0,0,0,163.2,28.32Z"/><path id="_Compound_Path_10" data-name="&lt;Compound Path&gt;" class="cls-2" d="M170.2,28.36V28.29c0-4.88,3.44-8.81,8.12-8.81,5,0,7.89,4,7.89,8.94a6.52,6.52,0,0,1,0,.82H172.76a5.91,5.91,0,0,0,6,5.73,7,7,0,0,0,5.34-2.39L185.62,34a8.74,8.74,0,0,1-7,3.17A8.41,8.41,0,0,1,170.2,28.36Zm13.45-1c-0.26-3.08-2-5.76-5.4-5.76-2.95,0-5.17,2.45-5.5,5.76h10.9Z"/><path id="_Path_" data-name="&lt;Path&gt;" class="cls-3" d="M48.69,22.62A17.16,17.16,0,0,0,61.31,30.2s8.62-.46,13.3-7.59"/></g></svg>