<?xml version="1.0" encoding="utf-8"?>
<!-- Generator: Adobe Illustrator 19.2.1, SVG Export Plug-In . SVG Version: 6.00 Build 0)  -->
<svg version="1.1" id="Layer_1" xmlns="http://www.w3.org/2000/svg" xmlns:xlink="http://www.w3.org/1999/xlink" x="0px" y="0px"
	 viewBox="0 0 200 200" style="enable-background:new 0 0 200 200;" xml:space="preserve">
<style type="text/css">
	.st0{fill:#FFFFFF;}
	.st1{fill:none;stroke:#FFFFFF;stroke-width:4;stroke-miterlimit:10;}
	.st2{fill:none;stroke:#FFFFFF;stroke-width:3;stroke-miterlimit:10;}
</style>
<g>
	<g id="XMLID_49_">
		<path id="XMLID_162_" class="st0" d="M14.6,45.5l1.1-2c1.9,1.4,4.1,2.2,6.5,2.2c3.7,0,6.2-2.1,6.2-6v-2c-1.5,2-3.5,3.6-6.6,3.6
			c-4.1,0-8-3-8-7.9v-0.1c0-4.9,3.9-8,8-8c3.2,0,5.2,1.6,6.6,3.4v-3h2.5v14c0,2.6-0.8,4.6-2.2,6c-1.5,1.5-3.8,2.3-6.4,2.3
			C19.5,47.8,16.8,47,14.6,45.5z M28.5,33.3L28.5,33.3c0-3.5-3-5.8-6.2-5.8s-5.9,2.2-5.9,5.7v0.1c0,3.4,2.7,5.8,5.9,5.8
			C25.4,39,28.5,36.7,28.5,33.3z"/>
		<path id="XMLID_155_" class="st0" d="M36.5,25.6H39V30c1.2-2.8,3.7-4.8,6.9-4.7V28h-0.2C42,28,39,30.7,39,35.8v6.7h-2.5V25.6z"/>
		<path id="XMLID_147_" class="st0" d="M60,13.7h3l13.1,28.8h-3.5L69.3,35c-3.7,3-11.5,3.2-15.6,0l-3.4,7.6H47L60,13.7z M68.3,32.4
			l-6.8-15l-6.8,14.9C58.4,35.1,63.5,35.5,68.3,32.4z"/>
		<path id="XMLID_121_" class="st0" d="M81.1,38V27.8h-2.4v-2.2h2.4v-5.1h2.5v5.1H89v2.2h-5.4v9.9c0,2.1,1.1,2.8,2.8,2.8
			c0.9,0,1.6-0.2,2.5-0.6v2.2c-0.9,0.5-1.8,0.7-3,0.7C83.2,42.8,81.1,41.5,81.1,38z"/>
		<path id="XMLID_112_" class="st0" d="M94.8,38V27.8h-2.4v-2.2h2.4v-5.1h2.5v5.1h5.4v2.2h-5.4v9.9c0,2.1,1.1,2.8,2.8,2.8
			c0.9,0,1.6-0.2,2.5-0.6v2.2c-0.9,0.5-1.8,0.7-3,0.7C96.8,42.8,94.8,41.5,94.8,38z"/>
		<path id="XMLID_101_" class="st0" d="M107.4,19.1h2.9v2.8h-2.9V19.1z M107.5,25.6h2.5v16.9h-2.5V25.6z"/>
		<path id="XMLID_96_" class="st0" d="M117,38V27.8h-2.4v-2.2h2.4v-5.1h2.5v5.1h5.4v2.2h-5.4v9.9c0,2.1,1.1,2.8,2.8,2.8
			c0.9,0,1.6-0.2,2.5-0.6v2.2c-0.9,0.5-1.8,0.7-3,0.7C119.1,42.8,117,41.5,117,38z"/>
		<path id="XMLID_93_" class="st0" d="M129.1,36.1V25.6h2.5v9.9c0,3.1,1.7,5.1,4.7,5.1c2.9,0,5.1-2.1,5.1-5.3v-9.7h2.5v16.9h-2.5
			v-2.9c-1.1,1.8-2.9,3.3-5.8,3.3C131.5,42.9,129.1,40.1,129.1,36.1z"/>
		<path id="XMLID_55_" class="st0" d="M148.5,34.1L148.5,34.1c0-5.6,4-8.9,8.1-8.9c3.1,0,5.2,1.7,6.5,3.6V18.6h2.5v23.9h-2.5v-3.4
			c-1.4,2-3.4,3.8-6.5,3.8C152.6,42.9,148.5,39.7,148.5,34.1z M163.2,34.1L163.2,34.1c0-4-3-6.6-6.1-6.6c-3.3,0-6,2.4-6,6.5v0.1
			c0,4,2.8,6.5,6,6.5C160.2,40.6,163.2,38,163.2,34.1z"/>
		<path id="XMLID_52_" class="st0" d="M170.2,34.1L170.2,34.1c0-4.9,3.4-8.9,8.1-8.9c5,0,7.9,4,7.9,8.9c0,0.3,0,0.5,0,0.8h-13.4
			c0.4,3.7,2.9,5.7,6,5.7c2.3,0,4-0.9,5.3-2.4l1.6,1.4c-1.7,1.9-3.8,3.2-7,3.2C174,42.9,170.2,39.3,170.2,34.1z M183.7,33.1
			c-0.3-3.1-2-5.8-5.4-5.8c-2.9,0-5.2,2.5-5.5,5.8H183.7z"/>
		<path id="XMLID_174_" class="st1" d="M48.7,28.4c0,0,4.2,6.9,12.6,7.6c0,0,8.6-0.5,13.3-7.6"/>
	</g>
	<g>
		<g id="XMLID_232_">
			<g id="XMLID_233_">
				<g id="XMLID_236_">
					<path id="XMLID_237_" class="st0" d="M114.4,75.4c-1.1-2.8-3.8-3.9-6.7-3.1c-0.6,0.2-0.6,1,0,1.1c1.8,0.6,5.3,0.5,4.7,3.8
						c-0.3,1.9-2,3.9-3,5.5c-2,3.3-4.3,6.4-6.4,9.6c-1.8,2.7-3.6,5.4-5.5,8c-0.7-1-2.1-1.6-3.1-2.1c-1.7-0.7-3.6-1.2-5.4-0.7
						c-0.6,0.2-0.6,1,0,1.2c1.6,0.5,3.1,0.6,4.6,1.3c1,0.5,1.9,1.3,2.9,1.7c-1.8,2.5-5.6,3.8-8.7,5c-0.3-3.4-0.8-7.6,0.7-10.3
						c1.7-2.9,3.9-5.6,5.7-8.5c1.9-2.9,3.6-5.8,5.4-8.8c1.5-2.6,3.5-5.5,4-8.4c0.1-0.4-0.4-0.7-0.7-0.4c-2.4,2.4-3.8,6-5.5,8.9
						c-1.9,3.3-4,6.5-6.1,9.7c-1.8,2.8-4.3,5.4-5.5,8.6c-0.5,1.4-0.2,3.3-0.2,4.8c0,2,0,4.1,0.1,6.1c0,0.9,0.9,1.3,1.7,1
						c4.5-2,9-3.2,11.9-7.3c3.4-4.7,6.5-9.5,9.6-14.4c1.4-2.3,2.8-4.6,4.2-6.9C113.7,79.4,115,77,114.4,75.4z"/>
				</g>
			</g>
			<g id="XMLID_238_">
				<g id="XMLID_239_">
					<path id="XMLID_241_" class="st0" d="M113.9,108.5c-2.5,0.5-4,0.6-6.4-0.4c-0.4-0.2-1.3,0.2-1.5,0.3c-1.4,0.4-2,0.9-3.3,0.7
						c0.2-3.8-9.5,0-10.8,0.5c-0.3,0.1-0.3,0.7,0.1,0.7c1.1-0.1,2.2-0.2,3.3-0.4c0.3-0.1,5.7-1.1,5.4-0.4c-0.2,0.5,0.2,1,0.7,1.2
						c1.2,0.5,2,0.5,3.3,0.3c0.6-0.2,1.3-0.4,1.9-0.7c0.4-0.1,2.4,0.5,3.1,0.7c1.9,0.5,3.8-0.2,4.9-1.7
						C114.8,108.9,114.3,108.5,113.9,108.5z"/>
				</g>
			</g>
		</g>
		<circle id="XMLID_265_" class="st2" cx="100" cy="90.8" r="34.1"/>
	</g>
	<g>
		<g id="XMLID_175_">
			<g id="XMLID_176_">
				<g id="XMLID_177_">
					<path id="XMLID_178_" class="st0" d="M181.9,156.6c-0.8-3.6-4.1-6.1-7.2-7.5c-3.7-1.7-8-1.9-11.9-1.3c-4,0.6-7.9,1.7-11.1,4.3
						c-2.7,2.2-4.2,5.8-3.6,9.2c0.5,2.7,3,5.1,5.8,5.4c-0.9,2.2-1.7,4.4-2.5,6.6c-0.1,0.3,0.4,0.5,0.5,0.2c1.3-2.4,2.6-4.8,3.8-7.2
						c0.3-0.5-0.1-1.2-0.7-1.2c-3.4,0-5.6-2.9-5.5-6.1c0.1-3.7,3.4-6.3,6.4-7.8c6.1-2.9,14.5-3.3,20.4,0.3c1.4,0.9,2.6,2.1,3.5,3.5
						c1.2,1.9,0.7,3.7-0.7,5.3c-2.2,2.5-5.9,4.1-9,5.2c-1.5,0.5-3,0.9-4.6,1.2c-0.9,0.2-1.8,0.3-2.7,0.3c-0.8,0.1-1.8-0.1-2.6,0.2
						c-1.2,0.4-1.9,1.3-2.8,2.1c-1.3,1.3-2.9,2.3-4.5,3.2c-0.8,0.5-0.1,1.7,0.7,1.3c1.8-0.8,3.4-2,4.9-3.3c1-0.9,1.6-1.7,3.1-1.8
						c1.1,0,2.1-0.1,3.2-0.3c4.2-0.6,8.1-2.1,11.8-4.2C179.1,162.7,182.7,160,181.9,156.6z"/>
				</g>
			</g>
			<g id="XMLID_179_">
				<g id="XMLID_180_">
					<path id="XMLID_181_" class="st0" d="M175.5,154.1c-1.3-0.3-2.8-0.1-4.1-0.1c-1.8,0-3.6,0.1-5.4,0.2c-3.3,0.1-6.9,0-10.1,0.8
						c-0.2,0.1-0.2,0.4,0,0.5c3.1,0.4,6.3,0.1,9.4,0c1.8-0.1,3.6-0.1,5.4-0.2c1.6,0,3.3,0.1,4.8-0.3
						C176,154.9,176,154.3,175.5,154.1z"/>
				</g>
			</g>
			<g id="XMLID_182_">
				<g id="XMLID_183_">
					<path id="XMLID_184_" class="st0" d="M175.7,157.7c-1.5-0.5-3.3-0.2-4.8-0.1c-2,0-4.1,0.1-6.1,0.2c-3.6,0.1-7.3,0.1-10.9,0.6
						c-0.2,0-0.1,0.3,0,0.4c3.6,0.4,7.2,0.2,10.8,0.2c1.8,0,3.6,0,5.4-0.1c1.8,0,3.9,0.3,5.5-0.3
						C176.1,158.4,176.1,157.8,175.7,157.7z"/>
				</g>
			</g>
			<g id="XMLID_185_">
				<g id="XMLID_186_">
					<path id="XMLID_192_" class="st0" d="M170.5,161.7c-2-0.4-4.3-0.1-6.3,0c-2.1,0-4.2-0.1-6.2,0.3c-0.3,0.1-0.3,0.6,0,0.7
						c2,0.4,4.2,0.4,6.2,0.4c2,0,4.3,0.3,6.3-0.3C171,162.5,171,161.8,170.5,161.7z"/>
				</g>
			</g>
		</g>
		<circle id="XMLID_263_" class="st2" cx="165" cy="160.8" r="25.6"/>
	</g>
	<g>
		<g id="XMLID_193_">
			<g id="XMLID_194_">
				<g id="XMLID_195_">
					<path id="XMLID_277_" class="st0" d="M29.1,157.7c2.5-3.5,6.2-3.5,10.2-3.6c2.3,0,4.6-0.1,6.9,0c1.4,0.1,3,0.2,4.1,1
						c1.2,0.9,1.7,2,1.7,3.5c0.1,2.2,0,4.7-0.4,6.9c-0.1,0.6-1.1,0.6-1.1,0c-0.2-1.6-0.1-3.2-0.1-4.8c0-1.7,0.4-3.5-1.4-4.5
						c-1.3-0.7-3-0.6-4.4-0.6c-1.7,0-3.5,0-5.2,0c-3.5,0-6.9-0.1-9.2,3c-1.8,2.6-1.6,6-1.1,9c4.4,0.8,8.8,1.3,13.3,1
						c1.5-0.1,3.1-0.6,4.5,0.2c0.6,0.4,1.1,1,1.7,1.5c0.5,0.4,1,0.7,1.5,1c-0.2-1-0.3-2-0.3-3c0-0.9,1.3-1.1,1.4-0.1
						c0.1,1.4,0.3,2.7,0.6,4.1c0.2,0.7-0.4,1.2-1,1c-1.6-0.5-2.9-1.3-4.1-2.4c-1.5-1.4-4.3-0.4-6.2-0.4c-4.1,0.2-8.2-0.3-12.2-1.3
						c-0.3-0.1-0.6-0.3-0.6-0.7C27.1,164.9,26.9,160.8,29.1,157.7z"/>
				</g>
			</g>
			<g id="XMLID_196_">
				<g id="XMLID_197_">
					<path id="XMLID_198_" class="st0" d="M44.2,148.7c-0.1-0.3-0.3-0.6-0.7-0.5c-4.3,0.5-8.5,1-12.8,1.5c-2,0.2-4,0.5-6,0.7
						c-1.6,0.2-3.6,0.2-5.1,0.9c-0.8,0.4-0.8,1.8-0.9,2.6c-0.2,2.1-0.2,4.2-0.2,6.3c0,4.1,0.8,8.1-0.6,12.1
						c-0.2,0.7,0.7,1.1,1.1,0.7c1.6-1.6,3.8-3.6,6.2-2.3c0.8,0.4,1.4-0.8,0.7-1.1c-2.3-1.2-4.4-0.3-6.2,1c0.4-2.5,0.3-5,0.2-7.5
						c-0.1-1.4-0.8-10.4,1-10.6c7.4-0.9,14.8-1.8,22.1-2.8c0.4,0.9,0.6,1.9,0.8,2.8c0.2,0.6,1.2,0.5,1.1-0.2
						C45,151.1,44.7,149.9,44.2,148.7z"/>
				</g>
			</g>
			<g id="XMLID_199_">
				<g id="XMLID_200_">
					<path id="XMLID_220_" class="st0" d="M34,164.8C34,164.7,34,164.7,34,164.8c-0.2-0.5-0.8-0.7-1.2-0.6c-0.6,0.2-0.9,0.7-0.7,1.3
						c0,0,0,0.1,0,0.1c0.1,0.6,0.8,0.9,1.3,0.7c0.3-0.1,0.5-0.3,0.6-0.5C34.2,165.5,34.2,165.1,34,164.8z"/>
				</g>
			</g>
			<g id="XMLID_226_">
				<g id="XMLID_227_">
					<path id="XMLID_228_" class="st0" d="M38.3,164.5c-1.7,0-1.7,2.6,0,2.6S40.1,164.5,38.3,164.5z"/>
				</g>
			</g>
			<g id="XMLID_229_">
				<g id="XMLID_230_">
					<path id="XMLID_231_" class="st0" d="M44.5,164.4c-1.6,0-1.6,2.4,0,2.4C46,166.8,46,164.4,44.5,164.4z"/>
				</g>
			</g>
		</g>
		<circle id="XMLID_253_" class="st2" cx="35" cy="160.8" r="25.6"/>
	</g>
	<g id="XMLID_532_">
		<g>
			<g>
				<g>
					<g>
						<path class="st0" d="M62.4,118.2c0,0.1,0.1,0.3,0.1,0.2L62.4,118.2L62.4,118.2z"/>
						<path class="st0" d="M62.7,118.7c0-0.2-0.1-0.4-0.3-0.7c0.1,0.3,0.1,0.2,0.2,0.5c0,0-0.1-0.1-0.1-0.2c0,0.1,0-0.1,0,0.1
							c0.1,0.2,0.1,0.2,0.1,0C62.6,118.6,62.7,118.7,62.7,118.7z"/>
						<path class="st0" d="M63.6,118.9L63.6,118.9C63.6,118.9,63.6,118.9,63.6,118.9z"/>
						<path class="st0" d="M64.2,118.9C64.2,118.9,64.2,119,64.2,118.9C64.2,119,64.2,118.9,64.2,118.9z"/>
						<path class="st0" d="M64.4,119.2C64.4,119.2,64.4,119.2,64.4,119.2C64.4,119.2,64.4,119.3,64.4,119.2z"/>
						<path class="st0" d="M63.6,118.9L63.6,118.9C63.7,118.9,63.7,118.9,63.6,118.9z"/>
						<path class="st0" d="M62.5,117.9C62.5,117.9,62.5,118,62.5,117.9C62.5,118,62.5,118,62.5,117.9L62.5,117.9z"/>
						<path class="st0" d="M63.5,119.2L63.5,119.2c0,0,0,0.1,0,0.1L63.5,119.2z"/>
						<path class="st0" d="M63.4,119.3c0,0-0.1-0.3-0.1-0.4c0,0.1,0.1,0.2,0.1,0.2C63.3,119.2,63.3,119.3,63.4,119.3z"/>
						<path class="st0" d="M62.9,119L62.9,119C63,119,63,119,62.9,119z"/>
						<path class="st0" d="M63.7,119.3C63.7,119.3,63.7,119.3,63.7,119.3L63.7,119.3z"/>
						<path class="st0" d="M68.1,116C68.1,116,68.1,116.1,68.1,116C68.1,116,68.1,116,68.1,116z"/>
						<polygon class="st0" points="68.4,117.4 68.4,117.4 68.5,117.6 						"/>
						<path class="st0" d="M64.6,119.5L64.6,119.5C64.7,119.6,64.7,119.6,64.6,119.5z"/>
						<path class="st0" d="M66,118.9c-0.1-0.2-0.1-0.3-0.1-0.6C65.9,118.5,65.9,118.8,66,118.9z"/>
						<path class="st0" d="M62.5,118L62.5,118C62.5,117.9,62.5,117.9,62.5,118z"/>
						<path class="st0" d="M65.8,118.4L65.8,118.4L65.8,118.4C65.8,118.3,65.8,118.4,65.8,118.4z"/>
						<path class="st0" d="M64.9,119.3c0,0,0-0.1,0-0.1C64.9,119.2,64.9,119.2,64.9,119.3z"/>
						<path class="st0" d="M64.6,119L64.6,119C64.6,119,64.6,119,64.6,119z"/>
						<path class="st0" d="M65,118.8C65,118.9,65,118.9,65,118.8C65,118.9,65,118.8,65,118.8C65,118.9,65,118.9,65,118.8z"/>
						<path class="st0" d="M65.1,118.8C65.1,118.8,65.1,118.8,65.1,118.8L65.1,118.8L65.1,118.8z"/>
						<path class="st0" d="M67.6,116.2c0,0.1,0,0.2,0,0.2C67.6,116.3,67.6,116.2,67.6,116.2z"/>
						<path class="st0" d="M62.6,118.1c0-0.1,0-0.1,0-0.1C62.5,118,62.5,118,62.6,118.1C62.5,118,62.6,118.1,62.6,118.1z"/>
						<path class="st0" d="M64.4,116.7L64.4,116.7C64.4,116.7,64.4,116.7,64.4,116.7z"/>
						<path class="st0" d="M66.5,116.5L66.5,116.5C66.5,116.4,66.5,116.4,66.5,116.5z"/>
						<path class="st0" d="M64.5,116.7c0,0.1,0.1,0.1,0.1,0.2c0,0,0,0,0-0.1L64.5,116.7z"/>
						<path class="st0" d="M67.7,115.8c0,0,0,0.4,0.1,0.6c0,0.1-0.1-0.3-0.1-0.5c0,0.1,0,0.4,0,0.4c0-0.1,0-0.1,0-0.2
							c0,0.3-0.1,0,0,0.4c0,0,0-0.1,0-0.1c0,0.2,0.1,0.4,0.1,0.5c0,0,0,0.2,0,0c0,0,0-0.1,0-0.2l0,0.1c-0.1-0.3,0-0.1,0-0.4
							c0,0.1,0,0.4,0,0.3c-0.1-0.3,0-0.1,0-0.4l0,0.1c-0.1-0.5,0,0-0.1-0.5c-0.1-0.1,0,0.2-0.1,0.1c0,0.2,0,0.3,0.1,0.5
							c0,0.3-0.2-0.8-0.1-0.4c0,0.2,0.1,0.6,0,0.4l-0.1-0.4c0,0,0.1,0.5,0,0.3c0-0.1,0-0.1,0-0.2c-0.1-0.3,0,0.2,0,0.2l-0.1-0.3
							c0,0.1,0,0.3-0.1,0.4c0-0.1,0-0.2-0.1-0.3c0,0.2-0.1,0-0.2-0.2l0,0.3c0,0,0-0.1,0-0.2c0-0.1,0,0.2,0,0.3c0,0,0-0.2-0.1-0.3
							c0,0.3,0,0.5-0.1,0.2l0-0.1c0-0.1,0.1,0.6,0,0.3l0-0.1c-0.1-0.1-0.1,0.2-0.2-0.3c0.1,0.4-0.1-0.2,0,0.4
							c-0.1-0.3-0.1-0.4-0.2-0.6c0,0,0.1,0.4,0.1,0.4l-0.1-0.3l0,0.3l-0.1-0.4l0,0.1c0,0-0.2,0.1-0.1,0.2c0,0.1-0.3-0.2-0.3-0.4v0.3
							c0-0.1,0.2-0.2,0.2-0.2c0,0.3,0-0.3,0.1,0c0,0.1,0.1,0.2,0.1,0.2c-0.1-0.2-0.1-0.2-0.1-0.1l0-0.2c-0.1,0-0.1,0.1-0.1,0.1
							c0,0.1,0.1,0.5,0.1,0.5l-0.1-0.3c0,0.2,0,0.1,0.1,0.4c0,0-0.1-0.4-0.1-0.5l0,0.1c0-0.1,0-0.1-0.1-0.3c0,0.2-0.1-0.3,0,0l0-0.1
							c0,0,0,0.1-0.1,0.1c0.1,0.3,0,0.2,0.1,0.4c0-0.1-0.1-0.3-0.2-0.3c0,0.1,0,0.2,0.1,0.4c-0.1-0.2-0.1-0.2-0.1-0.4
							c0,0,0,0.1,0,0.3c0,0.1,0,0.1,0.1,0.2c0,0,0-0.1-0.1-0.2l0,0c0,0.4-0.3-0.7-0.2-0.2l0,0l0,0.3c0,0,0-0.2-0.1-0.3
							c0.1,0.4-0.1,0-0.1,0.2c-0.2-0.7-0.1,0.1-0.3-0.4l0,0.2c0,0.2,0-0.1-0.1-0.1c0,0.1,0.1,0.2,0.1,0.2c0,0.2-0.3-0.2-0.4-0.3
							c0,0,0.2,0.9,0.1,0.5l-0.1-0.3c0,0.4-0.1,0-0.1,0.4c0-0.1,0-0.2,0-0.2c-0.1-0.2-0.1,0,0,0.2c0,0,0-0.2-0.1-0.3
							c-0.1-0.1,0,0.3,0,0.1c0,0,0-0.1,0-0.1c0,0.1-0.1,0,0,0.2c-0.1-0.1,0,0.1-0.1,0c0.1,0.3-0.1-0.1,0,0.3
							c-0.1-0.4-0.1-0.3-0.1-0.1c0-0.1-0.1-0.1-0.1-0.3c0,0,0,0.1,0.1,0.3c-0.2-0.5,0.1,0.4-0.2-0.2c0,0.2,0,0.4,0,0.5
							c-0.1-0.4,0-0.1-0.1-0.5c0,0.2,0.1,0.6,0,0.5c0-0.1-0.1-0.2-0.1-0.3c0,0.2-0.1,0-0.1,0.2c0,0,0-0.1,0-0.1c0,0,0-0.1,0,0.1
							l0-0.1c0.1,0.3,0.2,0.6,0.2,0.8c-0.2-0.6-0.1-0.1-0.3-0.8c0,0,0,0.1,0.1,0.3c0,0,0-0.1-0.1-0.3c0,0.1,0.1,0.3,0.1,0.3
							c0-0.1,0-0.1-0.1-0.2c0,0.2,0.1,0.4,0,0.3c0-0.1,0-0.1,0-0.1c0,0,0.1,0.5,0,0.3c-0.1-0.4-0.1-0.1-0.2-0.5l0,0.1l0.1,0.2
							c0,0,0,0.3,0,0.2l0-0.2l0,0.1l0.1,0.1c0,0.2,0.1,0.4,0.1,0.4c0,0,0,0-0.1-0.2l0,0c0,0.1,0.1,0.2,0,0.2c0-0.1-0.1-0.4-0.2-0.5
							c0.1,0.3,0,0.1,0.1,0.4c0-0.1-0.1-0.3-0.1-0.3l0.1,0.2c0-0.1,0-0.1-0.1-0.3c0,0,0.2,0.4,0.1,0.3c0,0,0-0.1,0-0.1
							c-0.1-0.1,0,0.2-0.1,0.1c-0.1-0.4,0-0.1-0.1-0.4c0,0.1,0.1,0.5,0,0.4l0,0c0.2,0.5-0.1-0.2-0.1,0c0,0-0.1-0.2-0.1-0.2
							c-0.1-0.1,0,0.1,0,0.3l0-0.1c-0.1-0.1-0.1-0.1-0.1-0.1c0,0.1,0,0.1,0.1,0.3c-0.3-0.7,0,0.4-0.2-0.2c0,0,0-0.1,0-0.1l0,0.1
							c0.1,0.2,0.1,0.1,0.1,0.3c0,0.1,0.1,0.2,0.1,0.2c0-0.2-0.1-0.3-0.2-0.5c0,0.1,0,0.1,0.1,0.2c-0.2-0.4,0.2,0.4,0,0.2l0-0.1
							c0,0.1,0.1,0.2,0,0.2c-0.1-0.2,0-0.1-0.1-0.3c0,0,0.1,0.5,0,0.2c0-0.1,0-0.1,0-0.1c-0.1-0.3-0.1-0.2-0.1-0.3l0,0l-0.1-0.1
							l0,0.1c0.2,0.7,0,0.1,0.1,0.6c-0.1-0.4-0.1-0.2-0.2-0.5c0-0.1-0.1-0.2-0.1-0.2c0.1,0.2-0.1-0.2,0,0.2c0-0.1,0,0-0.1-0.2
							c0,0.1,0.1,0.2,0.1,0.3c0.1,0.3-0.2-0.4-0.1,0.1c0,0.2,0.1,0.5,0.2,0.7c-0.1-0.1-0.1-0.3-0.1-0.3c-0.1-0.1-0.1-0.1,0,0
							c0-0.1-0.1-0.1-0.1-0.2c0,0,0.1,0.3,0.1,0.2c0-0.1-0.1-0.3-0.1-0.4c0,0.1,0.1,0.3,0.1,0.4c-0.1-0.2-0.1-0.2-0.1-0.3
							c0,0.1,0,0.2,0.1,0.4l0,0.1c0,0-0.1-0.2-0.1-0.3c-0.1-0.2,0.1,0.1,0.1,0.2l0,0.1c0.2,0.5,0-0.1,0-0.1l0.1,0.4l-0.1-0.3
							c0,0.1,0.1,0.3,0.1,0.4c0.1,0.2,0-0.1,0.1,0.1c0,0,0,0.1,0,0.1l0-0.1c0,0.1,0.1,0.3,0.1,0.2c0.1,0.2-0.1-0.3,0.1,0l0,0
							c0-0.1-0.1-0.3-0.2-0.6l0.3,0.7l-0.1-0.3c0,0,0,0,0.1,0.1c-0.1-0.2,0-0.1-0.1-0.3c0.1,0.3,0-0.1,0.2,0.3
							c-0.1-0.2-0.1-0.2-0.1-0.3c0.2,0.5,0-0.1,0.1,0.1c0.1,0.3,0,0.1,0.1,0.3c-0.1-0.4,0.1,0.1,0,0c-0.1-0.3,0-0.2,0-0.3
							c0,0.1,0.1,0.2,0.2,0.3l0,0.1c-0.1-0.3-0.1-0.3-0.1-0.4c0.1,0.2,0.1,0.3,0.1,0.4l0,0c0-0.1-0.1-0.2-0.1-0.2l0.1,0.3
							c0,0-0.1-0.3,0-0.2c-0.1-0.2-0.3-0.7-0.3-0.8c0,0.1,0.1,0.4,0.1,0.4c0,0,0-0.1,0-0.1l0.1,0.2c0,0.1-0.1-0.2,0-0.2
							c0.1,0.2,0,0.1,0.1,0.3c0,0,0-0.1,0,0c0,0,0.1,0.1,0.1,0.3c0-0.1-0.1-0.3-0.1-0.3c0,0,0.1,0.2,0.1,0.3c0-0.1,0,0-0.1-0.3
							c0,0,0.1,0.1,0.1,0.2c0-0.1,0-0.1-0.1-0.3l0,0c0,0,0,0,0,0l0,0l0,0c-0.1-0.3,0.1,0.1,0.1,0l0,0.1c0-0.1,0-0.1,0-0.3
							c0,0,0.1,0.2,0.1,0.3c0-0.1,0-0.2,0,0c0,0.2,0.1,0.1,0,0.1c0,0.1,0.1,0.2,0,0c0.1,0.2,0.1,0.3,0.1,0.2L64,119c0,0,0,0,0,0
							l0.1,0.3c0.2,0.4-0.1-0.7,0.1,0c-0.1-0.2-0.1-0.1-0.1-0.4c0,0,0.2,0.5,0.2,0.5c0.1,0.2-0.1-0.5-0.1-0.4c0-0.1-0.1-0.4-0.2-0.5
							c0,0,0.2,0.5,0.2,0.6c0,0,0,0,0-0.1c0,0,0,0.1,0.1,0.2l0-0.1c0,0.1,0.1,0.1,0.1,0.3c0-0.1-0.1-0.2-0.1-0.2
							c0.1,0.2,0,0,0.1,0.1c0-0.1-0.1-0.2-0.1-0.2c0.1,0.1-0.1-0.2,0-0.3c0.1,0.2,0.1,0.4,0.1,0.3c0.1,0.1,0.1,0.3,0.1,0.4
							c0-0.2,0.1,0.1,0.1,0.2l0,0.1c0-0.1,0-0.1,0-0.1l-0.1-0.2c0,0,0,0,0.1,0.1c0-0.2-0.1-0.4-0.2-0.6c0,0.1,0-0.1,0.1,0.2
							c-0.1-0.1,0.1,0.3,0.1,0.4c0,0,0,0,0,0c0,0,0,0.1,0,0.1c0.1,0.3-0.1-0.3-0.1-0.3c0,0.2,0.1,0.3,0.1,0.3c0,0-0.1-0.3-0.1-0.4
							c0.1,0.1,0-0.1,0-0.1l0-0.1c0-0.2,0-0.2,0-0.2c0,0.1,0,0.1,0,0.2c-0.1-0.3,0.1,0.3,0.1,0.1c0,0.1,0.1,0.3,0.1,0.4
							c0-0.2,0.1,0.2,0.1,0c-0.1-0.2-0.1-0.2-0.1-0.4l0,0.2l-0.1-0.3c0,0,0,0.2,0,0.1c0-0.2,0-0.1-0.1-0.3c0.1,0.3,0-0.2,0.1,0
							l0.2,0.6c0.1,0.2,0-0.3,0-0.2l0-0.1c-0.1-0.2,0,0,0-0.1c0.1,0.2,0.1,0.3,0.1,0.4c0-0.1,0,0-0.1-0.4l0.1,0.2
							c0.1,0.1-0.1-0.5-0.1-0.5c0.1,0.2,0.1,0.3,0.1,0.5c0,0,0,0,0-0.1c0,0.1,0-0.3,0-0.1c0-0.1-0.1-0.3-0.1-0.3c0,0,0,0.1,0,0.1
							c0-0.1,0-0.1-0.1-0.3c0.2,0.6,0.1-0.1,0.2,0.4c0-0.1,0-0.1,0-0.2c0,0.1,0,0.1,0,0.1c0.1,0.2-0.1-0.6-0.1-0.4
							c0.1,0.3,0,0.2,0.1,0.3c0.2,0.6,0-0.1,0.1,0.3l0,0c0.1,0.2,0-0.2,0-0.2c0,0,0,0.1,0,0.1c-0.1-0.3-0.1-0.4-0.1-0.5
							c0.1,0.2,0,0.1,0.1,0.4c0,0-0.1-0.4-0.1-0.5c0,0.1,0.1,0.2,0.2,0.5l0,0c0.1,0.3,0,0,0.1,0l0,0.2c0-0.1-0.1-0.4,0-0.4l0-0.1
							c-0.1-0.4,0.1,0.2,0-0.1l0.1,0.4c0-0.1-0.1-0.4-0.1-0.5c0.1,0.3,0.1,0.4,0.1,0.6c0,0,0,0,0-0.2c0,0,0,0.1,0,0.1
							c-0.1-0.3-0.1-0.5-0.1-0.5c0.2,0.7,0.1,0.2,0.3,0.7c0-0.3,0.1,0.1,0.2,0c-0.2-0.6,0,0-0.1-0.6c0,0,0,0,0,0l0.1,0.3
							c0.1,0.2,0,0.1,0.1,0.3c0,0,0.1,0.2,0.1,0.4c-0.1-0.2-0.1-0.3,0-0.2l-0.1-0.3c0-0.3,0.2,0.5,0.1,0.2l0,0.2c0-0.1,0.1,0,0-0.5
							c0,0.1,0.1,0.2,0.1,0.3c0.1,0.1,0-0.5,0.1-0.2l0,0.1c0,0,0-0.3,0-0.1c0,0.1,0,0.1,0,0.2c0-0.1,0-0.3,0-0.2l0,0.2
							c0.1,0.2,0-0.4,0-0.5c0.1,0.4,0.2,0.6,0.2,0.6l0,0.1c0.1,0,0-0.4,0-0.6c0.1,0.5,0.1,0.2,0.2,0.4c0-0.1-0.1-0.3-0.1-0.4
							c0,0.1,0-0.3,0,0.1l0,0c0.1,0.4,0.1,0.3,0.1,0.3l-0.1-0.5c0.2,0.7,0.1-0.3,0.2,0.4c0-0.1,0-0.1,0-0.3l0.1,0.3
							c0,0.1,0.1,0.1,0.1,0l0,0.2c0,0-0.1-0.8-0.1-0.8l0.1,0.4c0,0,0.1,0.3,0.1,0c0,0.1,0,0.2,0,0.2c0,0,0.1,0.3,0-0.3
							c0.1,0.4,0,0,0-0.1l0,0.3c0-0.4-0.1-0.4-0.1-0.6c0,0,0,0.2,0,0.1c0,0.1,0-0.3,0-0.1l0,0.2c0,0,0-0.1,0-0.3
							c0-0.1,0,0.1,0.1,0.3c0-0.2,0-0.4,0-0.3c0,0.1,0,0.2,0,0.2c0.1,0.2,0-0.3,0.1-0.1c0,0.1,0,0.1,0,0.2c0,0,0,0-0.1,0
							c0,0.3,0.1,0.3,0.1,0.6c0-0.2-0.1-0.6,0-0.5c0,0,0,0,0,0.1l0,0c0,0,0,0,0,0c0,0,0,0.1,0,0.1c0,0.2,0,0.1,0.1,0.1
							c0-0.3,0.2-0.2,0.1-0.5c0,0,0.2,0,0.2,0c0,0,0,0,0,0l-0.2,0c0,0-0.1,0-0.1,0c0-0.1-0.1-0.3,0-0.1c0-0.2-0.1-0.4-0.1-0.4
							c0.1,0.4,0.1,0.6,0.2,0.8c0-0.2,0-0.1,0-0.6c0-0.1,0,0.1,0,0.2c0,0.1,0,0,0,0.1c0-0.1,0-0.1,0-0.4c0,0.2,0,0.3,0.1,0.3l0,0.1
							c0.1,0.6,0-0.9,0.1-0.2c0,0,0-0.1,0-0.1c0.1,0.3,0.1-0.3,0.3,0.2c0,0.1,0-0.1,0-0.3l0,0.3l0-0.3c0-0.3,0.1,0.7,0.1,0.2l0-0.2
							c0,0,0-0.1,0.1,0.1c0,0,0-0.2,0-0.1l0,0.2l0-0.3c0,0.1,0.1,0.6,0.1,0.7c0-0.1,0-0.5,0-0.6c0,0,0-0.1,0-0.3l-0.1-0.1
							c0-0.5-0.3-0.9-0.3-1.3v0.3l0.1-0.2l0.1,0c0-0.2,0,0,0,0.1c0-0.1,0-0.2,0-0.2l0,0.4c0-0.2,0-0.4-0.1-0.5
							c0,0.2,0.1,0.4,0.1,0.5c0-0.2-0.1-0.4,0-0.2c0-0.1,0-0.2,0-0.2c0,0.1,0,0.1,0,0.3c0-0.3,0,0.1-0.1-0.4c0,0.1,0,0.3,0,0.4
							c0-0.5,0,0-0.1-0.6c0,0.5,0,0.2,0,0.5c0,0,0-0.1,0-0.1c0,0,0-0.2-0.1-0.3c0.1,0.4,0,0.5,0.1,0.7c-0.1-0.4-0.1-0.5-0.1-0.8
							c0,0.3,0,0.3,0.1,0.6c0-0.2,0-0.1-0.1-0.4c0.1,0.5,0,0.1,0,0.4c-0.1-0.2-0.1-0.5-0.1-0.3C67.7,116,67.7,115.8,67.7,115.8z
							 M67.3,116.7L67.3,116.7C67.3,116.7,67.3,116.7,67.3,116.7C67.3,116.7,67.3,116.7,67.3,116.7z M67.2,116.7
							C67.2,116.7,67.2,116.7,67.2,116.7c0,0.1,0.1,0.2,0.1,0.2C67.3,116.9,67.3,116.8,67.2,116.7z M67.7,118.6
							C67.7,118.7,67.6,118.6,67.7,118.6c0-0.1,0-0.1,0-0.1l0,0C67.6,118.5,67.7,118.6,67.7,118.6z"/>
						<path class="st0" d="M67.6,118.3C67.6,118.3,67.6,118.2,67.6,118.3C67.6,118.2,67.6,118.2,67.6,118.3L67.6,118.3L67.6,118.3z"
							/>
						<path class="st0" d="M63.6,118.9L63.6,118.9C63.6,118.9,63.6,118.9,63.6,118.9C63.6,118.9,63.6,118.9,63.6,118.9z"/>
						<polygon class="st0" points="66.5,116.3 66.5,116.4 66.5,116.3 						"/>
						<path class="st0" d="M63.1,118C63.1,118,63.1,118,63.1,118C63.1,118,63.1,118,63.1,118z"/>
						<path class="st0" d="M62.9,118L62.9,118C62.9,118,62.9,118,62.9,118z"/>
						<path class="st0" d="M62.8,117.9c0,0,0,0.1,0,0.1l0,0L62.8,117.9z"/>
						<path class="st0" d="M64,117.2C64,117.2,64,117.2,64,117.2C64,117.1,64,117.1,64,117.2z"/>
						<path class="st0" d="M63.8,117.9c0,0,0-0.1,0-0.1C63.8,117.8,63.8,117.8,63.8,117.9z"/>
						<polygon class="st0" points="64.4,116.7 64.4,116.7 64.4,116.7 						"/>
						<path class="st0" d="M63.8,117.8C63.8,117.7,63.8,117.7,63.8,117.8C63.8,117.8,63.8,117.8,63.8,117.8z"/>
						<path class="st0" d="M62.4,117.9L62.4,117.9C62.4,117.9,62.4,118,62.4,117.9L62.4,117.9z"/>
						<path class="st0" d="M62.4,118L62.4,118C62.4,118,62.4,118,62.4,118z"/>
						<path class="st0" d="M62.5,118.1L62.5,118.1C62.4,118,62.4,118,62.5,118.1z"/>
						<path class="st0" d="M62.6,118L62.6,118C62.5,117.9,62.6,118,62.6,118z"/>
						<path class="st0" d="M62.6,118c0,0-0.1-0.2-0.1-0.1L62.6,118C62.5,117.8,62.7,118.1,62.6,118z"/>
						<path class="st0" d="M63.2,119.1L63.2,119.1c0,0,0,0.2,0,0.2C63.4,119.6,63.1,119.1,63.2,119.1z"/>
						<path class="st0" d="M63.3,119.2c0,0.1,0.1,0.1,0.1,0.2C63.4,119.3,63.3,119.3,63.3,119.2z"/>
						<path class="st0" d="M63.9,119l0.1,0.2C64,119.2,63.9,119.2,63.9,119z"/>
						<polygon class="st0" points="63.6,117.7 63.5,117.6 63.6,117.8 						"/>
						<polygon class="st0" points="64.2,119.4 64.2,119.5 64.2,119.4 						"/>
						<path class="st0" d="M65.2,119.1l-0.1-0.3C65.1,118.8,65.2,119.1,65.2,119.1z"/>
						<path class="st0" d="M65.5,118.6C65.5,118.8,65.6,118.9,65.5,118.6C65.5,118.7,65.5,118.6,65.5,118.6z"/>
						<polygon class="st0" points="66.9,118.8 66.9,118.9 66.9,118.8 						"/>
					</g>
				</g>
			</g>
			<g>
				<g>
					<g>
						<path class="st0" d="M50.9,134.2c0.1,0,0.3,0,0.2,0L50.9,134.2L50.9,134.2z"/>
						<path class="st0" d="M51.5,134.1c-0.2,0-0.4,0-0.7,0c0.3,0,0.2,0,0.6,0c0,0-0.1,0-0.2,0c0.1,0-0.1,0,0.1,0c0.3,0,0.3,0,0.1,0
							C51.4,134.1,51.4,134.1,51.5,134.1z"/>
						<path class="st0" d="M52,133.3L52,133.3C52,133.3,52,133.3,52,133.3z"/>
						<path class="st0" d="M52.3,132.8C52.3,132.8,52.3,132.8,52.3,132.8C52.3,132.8,52.3,132.8,52.3,132.8z"/>
						<path class="st0" d="M52.6,132.7C52.6,132.7,52.6,132.7,52.6,132.7C52.6,132.7,52.6,132.7,52.6,132.7z"/>
						<path class="st0" d="M52,133.3l0.1,0C52,133.3,52.1,133.3,52,133.3z"/>
						<path class="st0" d="M50.7,134C50.7,134,50.8,134,50.7,134C50.8,134,50.8,134,50.7,134L50.7,134z"/>
						<path class="st0" d="M52.3,133.5L52.3,133.5c0,0,0.1,0,0.1,0L52.3,133.5z"/>
						<path class="st0" d="M52.3,133.7c0,0-0.3,0-0.4,0c0.1,0,0.2,0,0.2,0C52.2,133.7,52.3,133.7,52.3,133.7z"/>
						<path class="st0" d="M51.8,134L51.8,134C51.9,134,51.9,134,51.8,134z"/>
						<path class="st0" d="M52.4,133.4c0,0,0.1,0,0.1,0C52.4,133.4,52.4,133.4,52.4,133.4z"/>
						<path class="st0" d="M51.2,128.1C51.2,128.1,51.3,128.1,51.2,128.1C51.2,128.1,51.2,128.1,51.2,128.1z"/>
						<polygon class="st0" points="52.6,128.3 52.6,128.3 52.8,128.4 						"/>
						<path class="st0" d="M53,131.2c-0.3,0-0.3-0.1-0.6-0.1C52.5,131.1,52.8,131.2,53,131.2z"/>
						<path class="st0" d="M50.7,134L50.7,134C50.7,134,50.7,134,50.7,134z"/>
						<path class="st0" d="M52.4,131.1L52.4,131.1L52.4,131.1C52.4,131.1,52.4,131.1,52.4,131.1z"/>
						<path class="st0" d="M52.9,132.3c0,0-0.1,0-0.1,0C52.8,132.2,52.8,132.2,52.9,132.3z"/>
						<path class="st0" d="M52.4,132.5L52.4,132.5C52.4,132.5,52.4,132.5,52.4,132.5z"/>
						<path class="st0" d="M52.5,132.1C52.5,132.1,52.5,132.1,52.5,132.1C52.5,132.1,52.5,132.1,52.5,132.1
							C52.5,132.1,52.5,132.1,52.5,132.1z"/>
						<path class="st0" d="M52.5,131.9C52.5,131.9,52.5,131.9,52.5,131.9L52.5,131.9L52.5,131.9z"/>
						<path class="st0" d="M51.2,128.6c0.1,0,0.2,0,0.2,0.1C51.2,128.6,51.2,128.5,51.2,128.6z"/>
						<path class="st0" d="M50.9,134c-0.1,0-0.1,0-0.1,0c0,0,0,0,0,0C50.8,134,50.8,134,50.9,134z"/>
						<path class="st0" d="M50.3,131.8L50.3,131.8C50.3,131.8,50.3,131.8,50.3,131.8z"/>
						<path class="st0" d="M50.9,129.7L50.9,129.7C50.9,129.7,50.9,129.7,50.9,129.7z"/>
						<path class="st0" d="M50.3,131.7c0.1,0,0.2,0,0.2,0c0,0,0,0-0.1,0L50.3,131.7z"/>
						<path class="st0" d="M50.9,128.3c0,0,0.3,0.1,0.5,0.2C51.5,128.5,51.1,128.4,50.9,128.3c0.2,0.1,0.5,0.2,0.5,0.2
							c-0.1,0-0.1,0-0.2,0c0.3,0.1,0,0.1,0.3,0.2c0,0-0.1,0-0.1,0c0.2,0.1,0.4,0.1,0.5,0.1c0,0,0.2,0.1,0,0c0,0-0.1,0-0.2-0.1l0.1,0
							c-0.3-0.1-0.1-0.1-0.4-0.1c0.1,0.1,0.4,0.2,0.3,0.2c-0.3-0.1-0.1-0.1-0.4-0.1l0.1,0c-0.5-0.1,0,0-0.5-0.2
							c-0.1,0,0.2,0.1,0,0.1c0.2,0.1,0.3,0.1,0.4,0.1c0.3,0.1-0.8-0.2-0.4,0c0.2,0.1,0.6,0.2,0.4,0.2l-0.4-0.1c0,0,0.5,0.2,0.3,0.1
							c-0.1,0-0.1-0.1-0.2-0.1c-0.3-0.1,0.2,0.1,0.2,0.1l-0.3-0.1c0,0.1,0.3,0.2,0.3,0.2c-0.1,0-0.2-0.1-0.3-0.1
							c0.1,0.1-0.1,0.1-0.3,0.1l0.3,0.1c0,0-0.1,0-0.2,0c-0.1,0,0.2,0.1,0.3,0.1c0,0-0.2,0-0.2-0.1c0.2,0.1,0.5,0.2,0.2,0.2l-0.1,0
							c-0.1,0,0.6,0.2,0.3,0.1l0,0c-0.1,0,0.1,0.2-0.3,0.1c0.4,0.1-0.2,0,0.4,0.2c-0.3,0-0.4-0.1-0.6-0.1c0,0,0.4,0.1,0.4,0.1
							l-0.3-0.1l0.3,0.1l-0.4-0.1l0.1,0c0,0,0.1,0,0.2,0c0.1,0.1-0.2,0-0.4,0l0.2,0.1c-0.1,0-0.2,0-0.2-0.1c0.3,0.1-0.3-0.1,0,0
							c0.1,0,0.2,0,0.2,0.1c-0.2,0-0.2,0-0.1,0l-0.2-0.1c-0.1,0,0.1,0.1,0.1,0.2c0.1,0,0.5,0.1,0.5,0.1l-0.3-0.1
							c0.2,0.1,0.1,0,0.4,0.1c0,0-0.4-0.1-0.5-0.1l0.1,0c-0.1,0-0.1,0-0.3-0.1c0.2,0.1-0.3,0,0,0.1l-0.1,0c0,0,0.1,0.1,0.1,0.1
							c0.3,0.1,0.2,0.1,0.4,0.1c-0.1,0-0.3,0-0.3,0c0.1,0.1,0.2,0.1,0.4,0.1c-0.3,0-0.2,0-0.4-0.1c0,0,0,0.1,0.2,0.1
							c0.1,0,0.1,0,0.2,0c0,0-0.1,0-0.2,0l0,0c0.4,0.1-0.8,0-0.2,0.1l0,0l0.3,0.1c0,0-0.2,0-0.3-0.1c0.4,0.1-0.1,0.1,0.2,0.2
							c-0.8-0.1,0,0.1-0.4,0.1l0.2,0c0.2,0-0.1,0-0.1,0c0.1,0,0.2,0,0.3,0c0.2,0.1-0.3,0.2-0.5,0.2c-0.1,0,0.9,0.2,0.5,0.1l-0.3-0.1
							c0.4,0.1,0,0.1,0.3,0.3c-0.1,0-0.2,0-0.2,0c-0.2,0,0,0.1,0.2,0.1c0,0-0.2,0-0.3,0c-0.1,0,0.3,0.1,0.1,0.1c0,0-0.1,0-0.1,0
							c0.1,0,0,0,0.2,0.1c-0.1,0,0.1,0.1,0,0.1c0.3,0.1-0.2,0,0.3,0.1c-0.4-0.1-0.4,0-0.2,0c-0.1,0-0.1,0-0.3,0c0,0,0.1,0,0.3,0.1
							c-0.5,0,0.4,0.1-0.3,0.1c0.2,0.1,0.4,0.2,0.5,0.2c-0.4,0,0-0.1-0.5-0.1c0.2,0.1,0.6,0.1,0.5,0.2c-0.1,0-0.2,0-0.3,0
							c0.2,0.1,0,0.1,0.2,0.2c0,0-0.1,0-0.1,0c0,0-0.1,0,0.1,0l-0.1,0c0.3,0,0.6,0.1,0.8,0.1c-0.6-0.1-0.2,0-0.9-0.1
							c0,0,0.1,0,0.3,0c0,0-0.1,0-0.3,0c0.1,0,0.3,0,0.3,0.1c-0.1,0-0.1,0-0.3,0c0.2,0,0.4,0.1,0.3,0.1c-0.1,0-0.1,0-0.1,0
							c0,0,0.5,0.1,0.3,0.1c-0.4,0-0.1,0-0.5,0l0.1,0l0.2,0c0,0,0.3,0.1,0.1,0.1l-0.2,0l0.1,0l0.1,0c0.2,0,0.5,0,0.4,0.1
							c0,0,0,0-0.2,0l0,0c0.1,0,0.2,0,0.1,0c-0.1,0-0.4,0-0.5,0c0.3,0,0.1,0.1,0.4,0.1c-0.1,0-0.3,0-0.3,0l0.3,0c-0.1,0-0.1,0-0.3,0
							c0,0,0.5,0,0.3,0c0,0-0.1,0-0.1,0c-0.1,0,0.2,0.1,0,0.1c-0.4,0-0.1,0-0.4,0c0.1,0,0.4,0.1,0.4,0.2l0,0c0.5,0-0.3,0,0,0.1
							c0,0-0.2,0-0.2,0c-0.1,0,0.1,0.1,0.3,0.1l-0.1,0c-0.1,0-0.1,0-0.1,0.1c0.1,0,0.1,0,0.3,0c-0.8,0,0.4,0.1-0.2,0.1
							c0,0-0.1,0-0.1,0l0.1,0c0.2,0,0.1,0,0.3,0c0.1,0,0.2,0,0.2,0c-0.2,0-0.4,0-0.5,0c0.1,0,0.1,0,0.2,0c-0.4,0,0.5,0,0.2,0l-0.1,0
							c0.1,0,0.2,0,0.2,0c-0.3,0-0.1,0-0.3,0c0,0,0.5,0,0.2,0.1c-0.1,0-0.1,0-0.1,0c-0.3,0-0.2,0-0.3,0l0,0l-0.1,0l0.1,0
							c0.7,0,0.1,0,0.6,0.1c-0.4,0-0.2,0-0.6,0c-0.1,0-0.2,0-0.3,0c0.2,0-0.2,0,0.2,0c-0.1,0,0,0-0.3,0c0.1,0,0.2,0,0.3,0
							c0.3,0-0.4,0.1,0.1,0.1c0.2,0,0.5,0,0.7,0.1c-0.2,0-0.4,0-0.4,0c-0.1,0-0.1,0,0,0c-0.1,0-0.2,0-0.3,0c0,0,0.4,0,0.2,0
							c-0.1,0-0.3,0-0.4,0c0.1,0,0.3,0,0.4,0c-0.2,0-0.3,0-0.4,0c0.1,0,0.2,0,0.4,0.1l0.1,0c0,0-0.2,0-0.3,0c-0.2,0,0.1,0,0.2,0
							l0.1,0c0.6,0-0.1,0-0.1-0.1l0.4,0l-0.3,0c0.1,0,0.3,0,0.4,0c0.2,0-0.1,0,0.1,0c0,0,0.1,0,0.1,0l-0.1,0c0.1,0,0.3,0,0.2,0
							c0.2,0-0.3,0,0-0.1l0,0c-0.1,0-0.3,0-0.7,0l0.8,0l-0.3,0c0,0,0,0,0.2,0c-0.2,0-0.1,0-0.3,0c0.3,0-0.1-0.1,0.4-0.1
							c-0.2,0-0.2,0-0.3,0c0.5,0-0.1,0,0.2,0c0.3,0,0.1,0,0.4,0c-0.5,0,0.1,0,0,0c-0.4,0-0.2,0-0.3-0.1c0.1,0,0.2,0,0.3-0.1l0.1,0
							c-0.4,0-0.3,0-0.4-0.1c0.2,0,0.3,0,0.4,0l0,0c-0.1,0-0.2,0-0.2,0l0.3,0c0,0-0.3-0.1-0.1-0.1c-0.3,0-0.7,0-0.9,0
							c0.1,0,0.4,0,0.4,0c0,0-0.1,0-0.1,0l0.2,0c0.1,0-0.2,0-0.2,0c0.2,0,0.1,0,0.3,0c0,0-0.1,0,0,0c0,0,0.2,0,0.3,0
							c-0.1,0-0.3,0-0.3,0c0,0,0.2,0,0.3,0c-0.1,0,0,0-0.3,0c0,0,0.1,0,0.2,0c-0.1,0,0-0.1-0.3-0.1l0,0c0,0,0,0,0,0v0v0
							c-0.3,0,0.2-0.1,0-0.1l0.1,0c-0.1,0-0.1-0.1-0.3-0.1c0,0,0.2,0,0.3,0c-0.1,0-0.2,0,0,0c0.2,0,0.2,0,0.1,0c0.1,0,0.2,0,0,0
							c0.3,0,0.3,0,0.2,0l-0.2,0c0,0,0,0,0,0l0.3,0c0.4,0-0.7-0.1,0-0.1c-0.2,0-0.2,0-0.4,0c0,0,0.5,0,0.5,0c0.2,0-0.5-0.1-0.4-0.1
							c-0.1,0-0.4,0-0.5-0.1c0,0,0.5,0,0.6,0c0,0,0,0-0.1,0c0,0,0.1,0,0.2,0l-0.1,0c0.1,0,0.1,0,0.3,0c-0.1,0-0.2,0-0.3,0
							c0.2,0,0,0,0.1-0.1c-0.1,0-0.2,0-0.2,0c0.1,0-0.2,0-0.3-0.1c0.2,0,0.4,0,0.3,0c0.1,0,0.3,0,0.4,0c-0.2,0,0.2,0,0.2,0l0.1,0
							c-0.1,0-0.1,0-0.1,0l-0.2,0c0,0,0,0,0.1,0c-0.2,0-0.4,0-0.6-0.1c0.1,0-0.1,0,0.2,0c-0.1,0,0.3,0,0.4,0.1c0,0,0,0,0,0
							c0,0,0.1,0,0.1,0c0.3,0-0.4,0-0.3-0.1c0.2,0,0.3,0,0.3,0c0,0-0.3,0-0.4,0c0.1,0-0.1,0-0.1,0l-0.1,0c-0.2,0-0.2,0-0.2,0
							c0.1,0,0.1,0,0.2,0c-0.3,0,0.3,0,0.1,0c0.1,0,0.3,0,0.4,0c-0.2,0,0.2,0,0.1,0c-0.2,0-0.2,0-0.4,0l0.2,0.1l-0.3-0.1
							c0,0,0.1,0,0.1,0c-0.2,0-0.1,0-0.3,0c0.4,0-0.2-0.1,0-0.1l0.6,0.1c0.3,0-0.3-0.1-0.1-0.1l-0.1,0c-0.2,0,0,0-0.1,0
							c0.2,0,0.3,0,0.4,0c-0.1,0,0,0-0.4-0.1l0.3,0c0.1,0-0.6-0.1-0.5-0.1c0.2,0,0.4,0,0.5,0.1c0,0,0,0-0.1,0c0.1,0-0.3-0.1-0.1,0
							c-0.1,0-0.3,0-0.3,0c0,0,0.1,0,0.1,0c-0.1,0-0.1,0-0.3,0c0.6,0,0-0.1,0.5-0.1c-0.1,0-0.1-0.1-0.1-0.1c0.1,0,0.1,0,0.1,0
							c0.2,0-0.6-0.1-0.4-0.1c0.3,0,0.2,0,0.3,0c0.6,0.1-0.1,0,0.3,0l0,0c0.2,0-0.2-0.1-0.2-0.1c0,0,0.1,0,0.1,0
							c-0.3-0.1-0.4-0.1-0.5-0.1c0.3,0,0.1,0,0.4,0.1c0,0-0.4-0.1-0.5-0.1c0.1,0,0.3,0,0.5,0.1l0,0c0.4,0,0,0,0.1,0l0.2,0
							c0,0-0.4-0.1-0.4-0.1l-0.1,0c-0.4-0.1,0.2,0-0.1,0l0.4,0.1c-0.1,0-0.4-0.1-0.4-0.1c0.3,0.1,0.4,0.1,0.6,0.1c0,0,0,0-0.2-0.1
							c0,0,0.1,0,0.1,0c-0.3-0.1-0.5-0.1-0.4-0.1c0.8,0.1,0.2,0,0.8,0c-0.3-0.1,0.1-0.1,0.1-0.1c-0.6-0.1,0,0-0.6-0.1c0,0,0,0,0,0
							l0.4,0c0.2,0,0.1,0,0.3,0.1c0.1,0,0.3,0,0.4,0c-0.2,0-0.3-0.1-0.2-0.1l-0.3,0c-0.3-0.1,0.5,0.1,0.2,0l0.2,0
							c-0.1,0,0-0.1-0.5-0.2c0.1,0,0.2,0,0.3,0.1c0.1,0-0.5-0.2-0.2-0.2l0.1,0c0,0-0.3-0.1-0.1,0c0.1,0,0.1,0,0.2,0
							c0,0-0.3-0.1-0.2-0.1l0.2,0c0.2,0-0.4-0.1-0.5-0.2c0.4,0.1,0.6,0.1,0.7,0.1l0.1,0c0.1,0-0.3-0.2-0.5-0.2
							c0.5,0.1,0.2-0.1,0.5,0c-0.1,0-0.3-0.1-0.4-0.1c0.1,0-0.3-0.1,0.1,0l0,0c0.4,0.1,0.3,0,0.3,0l-0.5-0.1c0.8,0.1-0.2-0.2,0.4,0
							c-0.1,0-0.1,0-0.2-0.1l0.3,0.1c0.1,0,0.1,0,0.1-0.1l0.2,0.1c0,0-0.8-0.2-0.8-0.2l0.4,0.1c0,0,0.4,0,0-0.1c0.1,0,0.2,0,0.2,0.1
							c0,0,0.3,0-0.3-0.1c0.4,0.1,0,0-0.1-0.1l0.3,0.1c-0.3-0.1-0.4-0.1-0.5-0.2c0,0,0.2,0.1,0.1,0c0.1,0-0.3-0.1-0.1-0.1l0.2,0.1
							c0,0-0.1,0-0.3-0.1c-0.1,0,0.1,0,0.3,0c-0.1,0-0.3-0.1-0.3-0.1c0.1,0,0.1,0,0.2,0.1c0.2,0-0.3-0.1,0-0.1c0.1,0,0.1,0,0.2,0
							c0,0,0,0-0.1,0c0.2,0.1,0.3,0.1,0.6,0.2c-0.2-0.1-0.6-0.2-0.5-0.2c0,0,0,0,0.1,0l0,0c0,0,0,0,0,0c0,0,0.1,0,0.1,0
							c0.2,0.1,0.1,0,0.1,0c-0.3-0.1-0.2-0.1-0.4-0.1c0,0,0,0,0,0c0,0,0,0,0,0l0,0c0,0,0,0,0,0c-0.1,0-0.2-0.1-0.1-0.1
							c-0.2-0.1-0.3-0.1-0.4-0.1c0.4,0.1,0.6,0.1,0.8,0.2c-0.1-0.1-0.1-0.1-0.6-0.3c-0.1,0,0.1,0,0.2,0.1c0,0,0,0,0.1,0
							c-0.1-0.1,0-0.1-0.4-0.2c0.2,0,0.3,0.1,0.3,0.1l0.1,0c0.6,0.1-0.9-0.4-0.1-0.2c0,0-0.1,0-0.1,0c0.3,0-0.2-0.3,0.3-0.2
							c0.1,0-0.1-0.1-0.3-0.1l0.3,0.1l-0.3-0.1c-0.2-0.1,0.7,0.2,0.3,0l-0.2-0.1c0,0-0.1-0.1,0.1,0c0,0-0.2-0.1-0.1,0l0.1,0.1
							l-0.2-0.1c0.1,0,0.6,0.2,0.6,0.2c-0.1,0-0.4-0.2-0.5-0.2c0,0-0.1,0-0.2-0.1l-0.1,0c-0.4-0.2-0.9-0.3-1.2-0.4l0.3,0.1l-0.2-0.1
							l0,0c-0.2-0.1,0,0,0.1,0.1c-0.1,0-0.2-0.1-0.2-0.1l0.4,0.2c-0.2-0.1-0.3-0.1-0.4-0.2c0.2,0.1,0.4,0.1,0.5,0.2
							c-0.2-0.1-0.4-0.1-0.2,0c-0.1,0-0.2-0.1-0.2-0.1c0.1,0.1,0,0.1,0.3,0.1c-0.3-0.1,0,0.1-0.4-0.1c0.1,0,0.3,0.1,0.3,0.2
							c-0.5-0.2,0,0-0.6-0.2c0.4,0.2,0.2,0.1,0.4,0.2c0,0-0.1,0-0.1,0c0,0-0.2,0-0.3-0.1c0.4,0.1,0.4,0.2,0.7,0.3
							c-0.4-0.1-0.4-0.2-0.8-0.3c0.3,0.1,0.3,0.1,0.5,0.2c-0.2-0.1-0.1,0-0.4-0.1c0.5,0.2,0.1,0,0.4,0.1c-0.2-0.1-0.4-0.1-0.3-0.1
							C51,128.4,50.9,128.3,50.9,128.3z M51.5,129.1L51.5,129.1C51.5,129.1,51.5,129.1,51.5,129.1C51.5,129.1,51.5,129.1,51.5,129.1
							z M51.5,129.1C51.5,129.1,51.5,129.1,51.5,129.1c0.1,0,0.2,0,0.2,0C51.6,129.2,51.6,129.1,51.5,129.1z M53.4,129.6
							C53.4,129.6,53.4,129.6,53.4,129.6c-0.1,0-0.1,0-0.1,0l0,0C53.3,129.6,53.4,129.6,53.4,129.6z"/>
						<path class="st0" d="M53,129.5C53,129.5,53,129.5,53,129.5C53,129.5,53,129.4,53,129.5L53,129.5L53,129.5z"/>
						<path class="st0" d="M52,133.3L52,133.3C52,133.3,52,133.3,52,133.3C52,133.3,52,133.3,52,133.3z"/>
						<polygon class="st0" points="50.8,129.6 50.9,129.7 50.8,129.6 						"/>
						<path class="st0" d="M51,133.5C51,133.5,51,133.5,51,133.5C51,133.5,51,133.5,51,133.5z"/>
						<path class="st0" d="M51,133.6l-0.1,0C50.9,133.6,50.9,133.6,51,133.6z"/>
						<path class="st0" d="M50.8,133.7c0,0,0.1,0,0.1,0l0,0L50.8,133.7z"/>
						<path class="st0" d="M50.6,132.3C50.6,132.3,50.6,132.3,50.6,132.3C50.5,132.3,50.5,132.3,50.6,132.3z"/>
						<path class="st0" d="M51.2,132.8c-0.1,0-0.1,0-0.1,0C51,132.8,51,132.8,51.2,132.8z"/>
						<polygon class="st0" points="50.3,131.8 50.3,131.8 50.3,131.8 						"/>
						<path class="st0" d="M51.1,132.7C51,132.7,51,132.7,51.1,132.7C51.1,132.7,51.1,132.7,51.1,132.7z"/>
						<path class="st0" d="M50.7,134.1L50.7,134.1C50.7,134.1,50.7,134.1,50.7,134.1L50.7,134.1z"/>
						<path class="st0" d="M50.7,134.1L50.7,134.1C50.7,134.1,50.7,134.1,50.7,134.1z"/>
						<path class="st0" d="M50.8,134.1L50.8,134.1C50.7,134.1,50.7,134.1,50.8,134.1z"/>
						<path class="st0" d="M50.8,134l-0.1,0C50.7,134,50.8,134,50.8,134z"/>
						<path class="st0" d="M50.8,133.9c0,0-0.2,0-0.2,0L50.8,133.9C50.6,134,51,133.9,50.8,133.9z"/>
						<path class="st0" d="M52,133.8L52,133.8c0,0,0.2,0,0.2,0C52.6,133.8,52,133.9,52,133.8z"/>
						<path class="st0" d="M52.2,133.7c0.1,0,0.2,0,0.2,0C52.3,133.7,52.3,133.7,52.2,133.7z"/>
						<path class="st0" d="M52.2,133.1l0.3,0C52.4,133.1,52.4,133.1,52.2,133.1z"/>
						<polygon class="st0" points="50.9,132.9 50.8,132.9 51,133 						"/>
						<polygon class="st0" points="52.7,133 52.8,133 52.7,133 						"/>
						<path class="st0" d="M52.7,132l-0.3,0C52.5,132,52.8,132,52.7,132z"/>
						<path class="st0" d="M52.5,131.5c0.2,0,0.3,0,0.1,0C52.6,131.5,52.4,131.5,52.5,131.5z"/>
						<polygon class="st0" points="53.2,130.3 53.3,130.4 53.2,130.3 						"/>
					</g>
				</g>
			</g>
		</g>
	</g>
	<g id="XMLID_252_">
		<g>
			<g>
				<g>
					<g>
						<path class="st0" d="M137.1,119.4c0-0.1,0.1-0.3,0.1-0.2L137.1,119.4L137.1,119.4z"/>
						<path class="st0" d="M137.3,118.8c-0.1,0.1-0.2,0.4-0.3,0.7c0.1-0.3,0.1-0.2,0.2-0.5c0,0,0,0.1-0.1,0.2c0-0.1,0,0.1,0.1-0.1
							c0.1-0.2,0.1-0.3,0-0.1C137.2,118.9,137.3,118.9,137.3,118.8z"/>
						<path class="st0" d="M136.7,118L136.7,118C136.7,118.1,136.7,118,136.7,118z"/>
						<path class="st0" d="M136.2,117.7C136.2,117.7,136.2,117.7,136.2,117.7C136.2,117.6,136.2,117.7,136.2,117.7z"/>
						<path class="st0" d="M136.2,117.3C136.2,117.3,136.2,117.3,136.2,117.3C136.2,117.3,136.2,117.3,136.2,117.3z"/>
						<path class="st0" d="M136.7,118l0-0.1C136.6,118,136.7,118,136.7,118z"/>
						<path class="st0" d="M136.9,119.5C136.9,119.5,136.9,119.5,136.9,119.5C136.9,119.5,136.9,119.5,136.9,119.5L136.9,119.5z"/>
						<path class="st0" d="M137,117.9L137,117.9c0,0,0-0.1,0.1-0.1L137,117.9z"/>
						<path class="st0" d="M137.2,117.9c0,0-0.1,0.3-0.1,0.4c0-0.1,0.1-0.2,0.1-0.2C137.1,118,137.1,118,137.2,117.9z"/>
						<path class="st0" d="M137.3,118.4L137.3,118.4C137.3,118.4,137.3,118.4,137.3,118.4z"/>
						<path class="st0" d="M136.9,117.8C136.9,117.7,136.9,117.7,136.9,117.8L136.9,117.8z"/>
						<path class="st0" d="M131.6,118.6C131.6,118.6,131.6,118.6,131.6,118.6C131.6,118.6,131.6,118.6,131.6,118.6z"/>
						<polygon class="st0" points="131.6,117.2 131.6,117.2 131.6,117.1 						"/>
						<path class="st0" d="M134.6,116.7c0,0.2-0.1,0.3-0.1,0.6C134.5,117.2,134.6,116.9,134.6,116.7z"/>
						<path class="st0" d="M134.4,117.3L134.4,117.3L134.4,117.3C134.4,117.3,134.4,117.3,134.4,117.3z"/>
						<path class="st0" d="M135.7,117c0,0,0,0.1,0,0.1C135.7,117.1,135.7,117,135.7,117z"/>
						<path class="st0" d="M135.9,117.4L135.9,117.4C135.9,117.4,135.9,117.4,135.9,117.4z"/>
						<path class="st0" d="M135.5,117.3C135.5,117.3,135.5,117.2,135.5,117.3C135.5,117.3,135.5,117.3,135.5,117.3
							C135.5,117.3,135.5,117.3,135.5,117.3z"/>
						<path class="st0" d="M135.3,117.3C135.3,117.3,135.3,117.3,135.3,117.3L135.3,117.3L135.3,117.3z"/>
						<path class="st0" d="M132,118.6c0-0.1,0-0.2,0-0.3C132,118.5,132,118.6,132,118.6z"/>
						<path class="st0" d="M136.9,119.4c0,0.1,0,0.1,0,0.1C136.9,119.5,136.9,119.5,136.9,119.4
							C136.9,119.4,136.9,119.4,136.9,119.4z"/>
						<path class="st0" d="M134.9,119.4L134.9,119.4C134.8,119.4,134.9,119.4,134.9,119.4z"/>
						<path class="st0" d="M133.1,118.7L133.1,118.7C133.1,118.8,133.1,118.7,133.1,118.7z"/>
						<path class="st0" d="M134.8,119.4c0-0.1,0-0.2,0-0.2c0,0,0,0,0,0.1L134.8,119.4z"/>
						<path class="st0" d="M131.8,119c0,0,0.1-0.4,0.1-0.6c0-0.1,0,0.3,0,0.5c0-0.1,0.1-0.4,0.1-0.4c0,0.1,0,0.1,0,0.2
							c0.1-0.3,0.1,0,0.1-0.4c0,0,0,0.1,0,0.1c0-0.2,0.1-0.4,0.1-0.5c0,0,0.1-0.2,0,0c0,0,0,0.1,0,0.2l0-0.1c0,0.3,0,0.1-0.1,0.4
							c0-0.1,0.1-0.4,0.1-0.3c0,0.3-0.1,0.1-0.1,0.4l0-0.1c-0.1,0.5,0,0-0.1,0.5c0,0.1,0.1-0.2,0.1-0.1c0-0.2,0-0.3,0.1-0.5
							c0.1-0.3-0.1,0.8,0,0.4c0-0.2,0.1-0.6,0.1-0.4l-0.1,0.4c0,0,0.1-0.5,0.1-0.3c0,0.1,0,0.1,0,0.2c0,0.3,0.1-0.2,0.1-0.2
							l-0.1,0.3c0,0,0.1-0.3,0.2-0.3c0,0.1,0,0.2-0.1,0.3c0.1-0.2,0.1,0.1,0.1,0.3l0.1-0.3c0,0,0,0.1,0,0.2c0,0.1,0-0.2,0.1-0.3
							c0,0,0,0.2,0,0.3c0.1-0.2,0.2-0.5,0.2-0.2l0,0.1c0,0.1,0.1-0.6,0.1-0.3l0,0.1c0,0.1,0.1-0.1,0.1,0.3c0.1-0.4,0,0.2,0.1-0.4
							c0,0.3-0.1,0.4-0.1,0.6c0,0,0.1-0.4,0.1-0.4l-0.1,0.3l0.1-0.3l-0.1,0.4l0-0.1c0,0,0-0.1,0-0.2c0-0.1,0,0.2,0,0.4l0.1-0.2
							c0,0.1,0,0.2-0.1,0.2c0.1-0.3-0.1,0.3,0,0c0-0.1,0-0.2,0.1-0.2c0,0.2,0,0.2,0,0.1l0,0.2c0,0.1,0.1-0.1,0.1-0.1
							c0-0.1,0.1-0.5,0.1-0.5l-0.1,0.3c0.1-0.2,0-0.1,0.1-0.4c0,0-0.1,0.4-0.1,0.5l0-0.1c0,0.1,0,0.1-0.1,0.3c0.1-0.2,0,0.3,0,0
							l0,0.1c0,0,0.1-0.1,0.1-0.1c0.1-0.3,0.1-0.2,0.1-0.4c0,0.1,0,0.3,0,0.3c0.1-0.1,0.1-0.2,0.1-0.4c-0.1,0.2,0,0.2-0.1,0.4
							c0,0,0.1,0,0.1-0.2c0-0.1,0-0.1,0-0.2c0,0,0,0.1,0,0.2l0,0c0.1-0.4-0.1,0.8,0.1,0.2l0,0l0.1-0.3c0,0-0.1,0.2-0.1,0.3
							c0.1-0.4,0.1,0.1,0.2-0.2c-0.2,0.7,0.1,0,0,0.5l0-0.2c0.1-0.2,0,0.1,0,0.1c0-0.1,0-0.2,0.1-0.2c0.1-0.2,0.1,0.3,0.1,0.5
							c0,0.1,0.3-0.9,0.2-0.5l-0.1,0.3c0.2-0.4,0.1,0,0.3-0.3c0,0.1-0.1,0.2-0.1,0.2c-0.1,0.2,0,0,0.1-0.2c0,0,0,0.2-0.1,0.3
							c0,0.1,0.1-0.3,0.1-0.1c0,0,0,0.1,0,0.1c0-0.1,0,0,0.1-0.2c0,0.1,0.1-0.1,0.1,0.1c0.1-0.3,0,0.2,0.1-0.3
							c-0.1,0.4-0.1,0.4,0,0.2c0,0.1,0,0.1-0.1,0.3c0,0,0.1-0.1,0.1-0.3c-0.1,0.5,0.2-0.4,0,0.3c0.1-0.2,0.2-0.4,0.3-0.5
							c-0.1,0.4-0.1,0-0.2,0.5c0.1-0.2,0.2-0.5,0.2-0.4c0,0.1-0.1,0.2-0.1,0.3c0.1-0.2,0.1,0.1,0.2-0.2c0,0,0,0.1,0,0.1
							c0,0,0,0.1,0.1-0.1l0,0.1c0.1-0.3,0.2-0.6,0.3-0.7c-0.2,0.6,0,0.2-0.2,0.9c0,0,0.1-0.1,0.1-0.3c0,0,0,0.1-0.1,0.3
							c0.1-0.1,0.1-0.3,0.1-0.3c0,0.1,0,0.1-0.1,0.2c0.1-0.2,0.1-0.4,0.1-0.3c0,0.1,0,0.1,0,0.1c0,0,0.2-0.5,0.2-0.3
							c-0.1,0.4,0,0.1-0.1,0.5l0.1-0.1l0-0.2c0,0,0.1-0.2,0.1-0.1l-0.1,0.1l0.1-0.1l0-0.1c0.1-0.2,0.1-0.5,0.1-0.3c0,0,0,0,0,0.2
							l0,0c0-0.1,0.1-0.2,0.1-0.1c0,0.1-0.1,0.4-0.2,0.5c0.1-0.3,0.1-0.1,0.2-0.4c0,0.1-0.1,0.3-0.1,0.3l0.1-0.2
							c0,0.1,0,0.1-0.1,0.3c0,0.1,0.1-0.5,0.1-0.2c0,0,0,0.1,0,0.1c0,0.1,0.1-0.1,0.1,0c-0.1,0.4-0.1,0.1-0.1,0.4
							c0.1-0.1,0.2-0.4,0.2-0.3l0,0c0.2-0.5-0.1,0.3,0,0c0,0-0.1,0.2-0.1,0.2c0,0.1,0.1-0.1,0.2-0.2l0,0.1c0,0.1,0,0.1,0,0.1
							c0-0.1,0.1-0.1,0.1-0.3c-0.2,0.7,0.2-0.4,0.1,0.3c0,0,0,0.1,0,0.1l0.1-0.1c0.1-0.2,0-0.1,0.1-0.3c0.1-0.1,0.1-0.2,0.1-0.2
							c-0.1,0.1-0.1,0.3-0.2,0.5c0-0.1,0.1-0.1,0.1-0.2c-0.1,0.4,0.2-0.4,0.1-0.2l0,0.1c0-0.1,0.1-0.2,0.1-0.2
							c-0.1,0.3-0.1,0.1-0.1,0.3c0,0,0.2-0.5,0.1-0.2c0,0.1,0,0.1-0.1,0.1c-0.1,0.3-0.1,0.2-0.1,0.3l0,0l0,0.1l0-0.1
							c0.3-0.6,0.1-0.1,0.3-0.5c-0.2,0.4-0.1,0.2-0.2,0.5c0,0.1,0,0.2-0.1,0.3c0.1-0.2,0,0.2,0.1-0.1c0,0.1,0,0-0.1,0.2
							c0-0.1,0.1-0.2,0.1-0.3c0.1-0.3-0.1,0.4,0.1,0c0.1-0.2,0.2-0.5,0.3-0.6c0,0.1-0.1,0.3-0.1,0.3c0,0.1,0,0.1,0,0
							c0,0.1-0.1,0.1-0.1,0.3c0,0,0.1-0.3,0.1-0.2c0,0.1-0.1,0.3-0.2,0.4c0-0.1,0.1-0.2,0.2-0.3c-0.1,0.2-0.1,0.2-0.1,0.3
							c0-0.1,0.1-0.1,0.2-0.4l0-0.1c0,0-0.1,0.2-0.1,0.3c-0.1,0.2,0-0.1,0-0.2l0-0.1c0.2-0.5-0.1,0.1-0.1,0l0.2-0.4l-0.1,0.3
							c0-0.1,0.1-0.3,0.1-0.4c0.1-0.2-0.1,0.1,0-0.1c0,0,0-0.1,0-0.1l-0.1,0.1c0-0.1,0.1-0.3,0.1-0.2c0.1-0.2-0.2,0.3-0.1,0l0,0
							c-0.1,0.1-0.1,0.3-0.3,0.6l0.2-0.7l-0.1,0.3c0,0,0,0,0-0.1c-0.1,0.2,0,0.1-0.1,0.3c0.1-0.3-0.1,0.1,0.1-0.4
							c-0.1,0.2,0,0.2-0.1,0.3c0.2-0.5-0.1,0.1,0-0.2c0.1-0.3,0.1-0.1,0.1-0.3c-0.2,0.4,0-0.1,0,0c-0.1,0.3-0.1,0.1-0.1,0.2
							c0-0.1,0-0.2,0-0.3l0-0.1c-0.1,0.3-0.1,0.3-0.2,0.3c0.1-0.2,0.1-0.3,0.1-0.4l0,0c0,0.1-0.1,0.2-0.1,0.2l0.1-0.3
							c0,0-0.2,0.3-0.1,0.1c-0.1,0.2-0.2,0.7-0.3,0.8c0-0.1,0.1-0.4,0.1-0.4c0,0,0,0.1,0,0l0.1-0.2c0-0.1-0.1,0.2-0.1,0.2
							c0.1-0.2,0-0.1,0.1-0.3c0,0,0,0.1,0,0c0,0,0-0.2,0.1-0.3c0,0.1-0.1,0.3-0.1,0.3c0,0,0.1-0.2,0.1-0.3c-0.1,0.1,0,0-0.1,0.3
							c0,0,0-0.1,0.1-0.2c-0.1,0.1-0.1,0-0.2,0.3l0,0c0,0,0,0,0,0l0,0l0,0c-0.1,0.3,0-0.2-0.1-0.1l0-0.1c-0.1,0.1-0.1,0-0.2,0.2
							c0,0,0-0.2,0.1-0.3c0,0.1-0.1,0.2,0,0c0.1-0.2,0-0.1,0.1-0.1c0-0.1,0.1-0.2-0.1,0c0.1-0.2,0.1-0.3,0.1-0.2l0,0.2c0,0,0,0,0,0
							l0.1-0.3c0.1-0.4-0.3,0.6-0.1,0c-0.1,0.2,0,0.2-0.1,0.4c0,0,0.1-0.5,0.1-0.5c0-0.2-0.2,0.5-0.2,0.3c0,0.1-0.1,0.4-0.2,0.5
							c0,0,0.1-0.5,0.2-0.6c0,0,0,0,0,0.1c0,0,0-0.1,0.1-0.2l0,0.1c0-0.1,0-0.1,0.1-0.3c-0.1,0.1-0.1,0.2-0.1,0.2c0-0.2,0,0,0-0.1
							c0,0.1-0.1,0.2-0.1,0.2c0-0.2-0.1,0.2-0.1,0.3c0-0.2,0.1-0.4,0.1-0.3c0-0.1,0.1-0.3,0.1-0.4c-0.1,0.2,0-0.2,0-0.2l0-0.1
							c0,0.1,0,0,0,0l-0.1,0.2c0,0,0,0,0-0.1c-0.1,0.1-0.1,0.4-0.2,0.6c0-0.1-0.1,0.1,0-0.2c0,0.1,0.1-0.3,0.1-0.3c0,0,0,0,0,0
							c0,0,0-0.1,0-0.1c0.1-0.3-0.1,0.3-0.1,0.3c0.1-0.2,0.1-0.3,0.1-0.3c0,0-0.1,0.3-0.1,0.4c0-0.1-0.1,0.1-0.1,0.1l0,0.1
							c-0.1,0.2-0.1,0.1-0.1,0.2c0-0.1,0-0.1,0.1-0.1c-0.1,0.3,0.1-0.3,0-0.1c0-0.1,0.1-0.3,0.1-0.4c-0.1,0.2,0-0.2,0-0.1
							c-0.1,0.2,0,0.2-0.1,0.4l0.1-0.1l-0.1,0.3c0,0,0.1-0.1,0.1-0.1c-0.1,0.2-0.1,0.1-0.1,0.3c0.1-0.3-0.1,0.2,0,0l0.2-0.6
							c0-0.3-0.1,0.3-0.1,0.1l0,0.1c-0.1,0.2,0,0-0.1,0.1c0.1-0.2,0.1-0.3,0.1-0.4c0,0.1,0,0-0.1,0.4l0.1-0.3c0-0.1-0.2,0.5-0.2,0.5
							c0.1-0.2,0.1-0.3,0.2-0.5c0,0,0,0,0,0.1c0-0.1-0.1,0.2-0.1,0.1c0,0.1-0.1,0.3-0.1,0.3c0,0,0-0.1,0-0.1c0,0.1-0.1,0.1-0.1,0.3
							c0.1-0.6-0.1,0,0-0.5c0,0.1-0.1,0.1-0.1,0.1c0-0.1,0-0.1,0-0.1c0-0.2-0.2,0.5-0.1,0.3c0.1-0.3,0.1-0.2,0.1-0.3
							c0.2-0.6-0.1,0.1,0-0.3l0,0c0-0.2-0.1,0.2-0.1,0.2c0,0,0-0.1,0-0.1c-0.1,0.3-0.2,0.4-0.2,0.5c0.1-0.2,0-0.1,0.1-0.4
							c0,0-0.1,0.4-0.1,0.5c0-0.1,0-0.3,0.1-0.5l0,0c0.1-0.3,0,0,0-0.1l0-0.2c0,0-0.1,0.4-0.2,0.4l0,0.1c-0.1,0.4,0-0.2-0.1,0.1
							l0.1-0.4c0,0.1-0.1,0.4-0.2,0.4c0.1-0.3,0.2-0.4,0.2-0.6c0,0-0.1,0-0.1,0.2c0,0,0-0.1,0-0.1c-0.1,0.3-0.2,0.4-0.2,0.4
							c0.2-0.7,0-0.2,0.1-0.8c-0.1,0.3-0.1-0.1-0.1-0.1c-0.1,0.6,0,0-0.2,0.6c0,0,0,0,0,0l0.1-0.4c0-0.2,0-0.1,0.1-0.3
							c0-0.1,0.1-0.3,0.1-0.4c0,0.2-0.1,0.3-0.1,0.2l0,0.3c-0.1,0.3,0.1-0.5,0-0.2l0.1-0.2c0,0.1-0.1,0-0.2,0.5c0-0.1,0-0.2,0.1-0.3
							c0-0.1-0.2,0.5-0.2,0.2l0-0.1c0,0-0.1,0.3-0.1,0.1c0-0.1,0-0.1,0-0.2c0,0-0.1,0.2-0.1,0.2l0-0.2c0-0.2-0.2,0.4-0.2,0.5
							c0.1-0.4,0.1-0.6,0.1-0.7l0-0.1c0-0.1-0.2,0.3-0.3,0.5c0.1-0.5-0.1-0.2-0.1-0.5c0,0.1-0.1,0.3-0.1,0.4c0-0.1-0.1,0.3,0-0.1
							l0,0c0.1-0.4,0-0.3,0-0.3l-0.1,0.5c0.1-0.8-0.2,0.2-0.1-0.4c0,0.1,0,0.1-0.1,0.2l0.1-0.3c0-0.1,0-0.1-0.1-0.1l0-0.2
							c0,0-0.2,0.8-0.2,0.8l0.1-0.4c0,0,0-0.4-0.1,0c0-0.1,0-0.2,0-0.2c0,0,0-0.3-0.1,0.3c0.1-0.4,0,0-0.1,0.1l0.1-0.3
							c-0.1,0.3-0.1,0.4-0.1,0.5c0,0,0-0.2,0-0.1c0-0.1-0.1,0.3-0.1,0.1l0-0.2c0,0,0,0.1-0.1,0.3c0,0.1,0-0.1,0-0.3
							c0,0.2-0.1,0.4-0.1,0.3c0-0.1,0-0.2,0-0.2c0-0.2-0.1,0.3-0.1,0c0-0.1,0-0.1,0-0.2c0,0,0,0,0,0.1c0-0.3,0-0.3,0.1-0.6
							c-0.1,0.2-0.2,0.6-0.2,0.5c0,0,0,0,0-0.1l0,0c0,0,0,0,0,0c0,0,0-0.1,0-0.1c0-0.2,0-0.1,0-0.1c0,0.3-0.1,0.2-0.1,0.5
							c0,0,0,0,0,0c0,0,0,0,0,0l0,0c0,0,0,0,0,0c0,0.1-0.1,0.3,0,0.1c0,0.2-0.1,0.4-0.1,0.4c0-0.4,0.1-0.6,0.1-0.8
							c-0.1,0.1-0.1,0.1-0.2,0.6c0,0.1,0-0.2,0-0.2c0-0.1,0,0,0-0.1c0,0.1-0.1,0-0.1,0.4c0-0.2,0.1-0.3,0-0.3l0-0.1
							c0-0.6-0.2,0.9-0.2,0.2c0,0,0,0.1,0,0.1c0-0.3-0.2,0.3-0.2-0.2c0-0.1,0,0.1-0.1,0.3l0-0.3l-0.1,0.3c-0.1,0.2,0-0.7-0.1-0.3
							l0,0.2c0,0-0.1,0.1,0-0.1c0,0,0,0.2,0,0.1l0-0.2l-0.1,0.3c0-0.1,0.1-0.6,0-0.7c0,0.1-0.1,0.5-0.1,0.6c0,0,0,0.1,0,0.3l0,0.1
							c0,0.5-0.1,0.9-0.1,1.3l0-0.3l0,0.2l0,0c0,0.2,0,0,0-0.1c0,0.1,0,0.2,0,0.2l0.1-0.4c0,0.2,0,0.4,0,0.5c0-0.2,0-0.4,0.1-0.5
							c0,0.2,0,0.4,0,0.2c0,0.1,0,0.2,0,0.2c0-0.1,0-0.1,0.1-0.3c0,0.3,0-0.1,0,0.4c0-0.1,0.1-0.3,0.1-0.4c-0.1,0.5,0,0,0,0.6
							c0.1-0.5,0.1-0.2,0.1-0.5c0,0,0,0.1,0,0.1c0,0,0,0.2,0,0.3c0.1-0.4,0.1-0.5,0.1-0.7c0,0.4-0.1,0.5-0.1,0.8
							c0-0.3,0.1-0.3,0.1-0.6c0,0.2,0,0.1,0,0.4c0.1-0.5,0-0.1,0.1-0.4c0,0.2-0.1,0.5,0,0.3C131.9,118.8,131.8,119,131.8,119z
							 M132.5,118.2L132.5,118.2C132.5,118.2,132.4,118.2,132.5,118.2C132.4,118.2,132.5,118.2,132.5,118.2z M132.5,118.2
							C132.5,118.2,132.5,118.2,132.5,118.2c0-0.1,0-0.2,0-0.2C132.5,118.1,132.5,118.1,132.5,118.2z M132.7,116.3
							C132.8,116.2,132.8,116.3,132.7,116.3c0,0.1,0,0.1,0,0.1l0,0C132.7,116.3,132.7,116.3,132.7,116.3z"/>
						<path class="st0" d="M132.7,116.6C132.7,116.6,132.7,116.6,132.7,116.6C132.7,116.7,132.7,116.7,132.7,116.6L132.7,116.6
							L132.7,116.6z"/>
						<path class="st0" d="M136.6,118.1L136.6,118.1C136.6,118.1,136.6,118.1,136.6,118.1C136.6,118.1,136.6,118.1,136.6,118.1z"/>
						<polygon class="st0" points="133,118.8 133,118.8 133,118.8 						"/>
						<path class="st0" d="M136.6,119.1C136.6,119.1,136.5,119.1,136.6,119.1C136.5,119.1,136.6,119.1,136.6,119.1z"/>
						<path class="st0" d="M136.6,119.2L136.6,119.2C136.6,119.2,136.6,119.2,136.6,119.2z"/>
						<path class="st0" d="M136.7,119.3c0,0,0-0.1,0-0.1l0,0L136.7,119.3z"/>
						<path class="st0" d="M135.4,119.2C135.4,119.2,135.4,119.2,135.4,119.2C135.3,119.3,135.3,119.3,135.4,119.2z"/>
						<path class="st0" d="M135.9,118.7c0,0,0,0.1-0.1,0.1C135.9,118.9,135.9,118.9,135.9,118.7z"/>
						<polygon class="st0" points="134.9,119.4 134.9,119.4 134.9,119.4 						"/>
						<path class="st0" d="M135.8,118.8C135.8,118.9,135.8,118.9,135.8,118.8C135.9,118.8,135.9,118.8,135.8,118.8z"/>
						<path class="st0" d="M136.9,119.6L136.9,119.6C137,119.6,137,119.5,136.9,119.6L136.9,119.6z"/>
						<path class="st0" d="M137,119.5L137,119.5C137,119.5,137,119.5,137,119.5z"/>
						<path class="st0" d="M137,119.4L137,119.4C137,119.5,137,119.5,137,119.4z"/>
						<path class="st0" d="M136.9,119.4L136.9,119.4C136.9,119.5,136.9,119.5,136.9,119.4z"/>
						<path class="st0" d="M136.9,119.4c0,0-0.1,0.2,0,0.2L136.9,119.4C136.8,119.6,136.9,119.3,136.9,119.4z"/>
						<path class="st0" d="M137.2,118.2L137.2,118.2c0,0,0.1-0.2,0.1-0.2C137.3,117.7,137.2,118.2,137.2,118.2z"/>
						<path class="st0" d="M137.1,118c0,0,0.1-0.1,0.1-0.2C137.2,117.9,137.2,117.9,137.1,118z"/>
						<path class="st0" d="M136.5,117.8l0.1-0.2C136.6,117.6,136.6,117.7,136.5,117.8z"/>
						<polygon class="st0" points="136,119 136,119.2 136,119 						"/>
						<polygon class="st0" points="136.5,117.3 136.5,117.2 136.5,117.3 						"/>
						<path class="st0" d="M135.4,117l-0.1,0.3C135.4,117.3,135.5,116.9,135.4,117z"/>
						<path class="st0" d="M134.9,117.2c0-0.2,0-0.3,0-0.1C134.9,117.1,134.9,117.3,134.9,117.2z"/>
						<polygon class="st0" points="133.6,116.4 133.7,116.3 133.6,116.4 						"/>
					</g>
				</g>
			</g>
			<g>
				<g>
					<g>
						<path class="st0" d="M147.8,134.2c0.1,0,0.3,0,0.2,0L147.8,134.2L147.8,134.2z"/>
						<path class="st0" d="M148.4,134.1c-0.2,0-0.4,0-0.7,0c0.3,0,0.2,0,0.6,0c0,0-0.1,0-0.2,0c0.1,0-0.1,0,0.1,0c0.3,0,0.3,0,0.1,0
							C148.2,134.1,148.3,134.1,148.4,134.1z"/>
						<path class="st0" d="M148.9,133.3L148.9,133.3C148.9,133.3,148.9,133.3,148.9,133.3z"/>
						<path class="st0" d="M149,132.7C149,132.7,149.1,132.7,149,132.7C149.1,132.7,149.1,132.7,149,132.7z"/>
						<path class="st0" d="M149.4,132.6C149.4,132.6,149.4,132.6,149.4,132.6C149.4,132.6,149.4,132.6,149.4,132.6z"/>
						<path class="st0" d="M148.9,133.3l0.1,0C148.9,133.2,148.9,133.3,148.9,133.3z"/>
						<path class="st0" d="M147.6,134C147.6,134,147.6,134,147.6,134C147.7,134,147.7,134,147.6,134L147.6,134z"/>
						<path class="st0" d="M149.2,133.5L149.2,133.5c0,0,0.1,0,0.1,0L149.2,133.5z"/>
						<path class="st0" d="M149.2,133.7c0,0-0.3,0-0.4,0c0.1,0,0.2,0,0.2,0C149.1,133.7,149.1,133.7,149.2,133.7z"/>
						<path class="st0" d="M148.7,134L148.7,134C148.8,134,148.7,134,148.7,134z"/>
						<path class="st0" d="M149.2,133.4c0,0,0.1,0,0.1,0C149.3,133.4,149.2,133.4,149.2,133.4z"/>
						<path class="st0" d="M146.3,128.9C146.3,128.9,146.3,128.9,146.3,128.9C146.3,128.9,146.3,128.9,146.3,128.9z"/>
						<polygon class="st0" points="147.5,128.3 147.5,128.3 147.7,128.2 						"/>
						<path class="st0" d="M149.7,132.4L149.7,132.4C149.8,132.4,149.8,132.4,149.7,132.4z"/>
						<path class="st0" d="M149.3,130.8c-0.2,0.1-0.3,0-0.6,0.1C148.8,130.9,149.2,130.9,149.3,130.8z"/>
						<path class="st0" d="M147.6,134L147.6,134C147.6,134,147.6,134,147.6,134z"/>
						<path class="st0" d="M148.7,130.9L148.7,130.9L148.7,130.9C148.7,130.9,148.7,130.9,148.7,130.9z"/>
						<path class="st0" d="M149.5,132c0,0-0.1,0-0.1,0C149.4,132,149.5,132,149.5,132z"/>
						<path class="st0" d="M149.2,132.3L149.2,132.3C149.2,132.3,149.2,132.3,149.2,132.3z"/>
						<path class="st0" d="M149.1,131.9C149.1,131.9,149.2,131.9,149.1,131.9C149.1,131.9,149.1,131.9,149.1,131.9
							C149.1,131.9,149.2,131.9,149.1,131.9z"/>
						<path class="st0" d="M149.1,131.7C149.1,131.7,149.1,131.7,149.1,131.7L149.1,131.7L149.1,131.7z"/>
						<path class="st0" d="M146.5,129.3c0.1,0,0.2-0.1,0.2-0.1C146.6,129.3,146.5,129.3,146.5,129.3z"/>
						<path class="st0" d="M147.7,134c-0.1,0-0.1,0-0.1,0c0,0,0,0,0,0C147.7,134,147.7,134,147.7,134z"/>
						<path class="st0" d="M146.9,132.1L146.9,132.1C146.9,132.1,146.9,132.1,146.9,132.1z"/>
						<path class="st0" d="M146.9,130.3L146.9,130.3C146.8,130.3,146.8,130.3,146.9,130.3z"/>
						<path class="st0" d="M146.9,132c0.1,0,0.2,0,0.2,0c0,0,0,0-0.1,0L146.9,132z"/>
						<path class="st0" d="M146.1,129.3c0,0,0.3-0.1,0.5-0.2c0.1,0-0.3,0.1-0.4,0.2c0.1,0,0.4-0.1,0.4-0.1c-0.1,0-0.1,0-0.2,0
							c0.3-0.1,0,0,0.4,0c0,0-0.1,0-0.1,0c0.2-0.1,0.4-0.1,0.5-0.2c0,0,0.2-0.1,0,0c0,0-0.1,0-0.2,0l0.1,0c-0.3,0.1-0.1,0-0.4,0.1
							c0.1,0,0.4-0.1,0.3,0c-0.3,0.1-0.1,0-0.4,0.1l0.1-0.1c-0.5,0.2,0,0-0.5,0.2c-0.1,0.1,0.2,0,0.1,0c0.2-0.1,0.3-0.1,0.4-0.1
							c0.3-0.1-0.8,0.3-0.4,0.2c0.2-0.1,0.6-0.2,0.4-0.1l-0.4,0.1c0,0,0.5-0.1,0.3,0c-0.1,0-0.1,0-0.2,0c-0.3,0.1,0.2,0,0.2,0
							l-0.3,0.1c0.1,0,0.3,0,0.4,0c-0.1,0-0.2,0-0.3,0.1c0.2,0,0,0.1-0.2,0.2l0.3-0.1c0,0-0.1,0-0.2,0.1c-0.1,0,0.2,0,0.3-0.1
							c0,0-0.2,0.1-0.2,0.1c0.2,0,0.5-0.1,0.2,0.1l-0.1,0c-0.1,0.1,0.6-0.1,0.3,0l-0.1,0c-0.1,0.1,0.2,0.1-0.3,0.2
							c0.4-0.1-0.2,0.1,0.4,0c-0.3,0.1-0.4,0.1-0.6,0.2c0,0,0.4-0.1,0.4-0.1l-0.3,0.1l0.3-0.1l-0.4,0.1l0.1,0c0,0,0.1,0,0.2-0.1
							c0.1,0-0.2,0.1-0.4,0.1l0.3,0c-0.1,0-0.2,0-0.2,0c0.3,0-0.3,0.1,0,0c0.1,0,0.2,0,0.2-0.1c-0.2,0.1-0.2,0.1-0.1,0.1l-0.2,0
							c0,0,0.1,0,0.1,0.1c0.1,0,0.5-0.1,0.5-0.1l-0.3,0.1c0.2,0,0.1,0,0.4-0.1c0,0-0.4,0.1-0.5,0.1l0.1,0c-0.1,0-0.1,0-0.3,0.1
							c0.2,0-0.3,0.1,0,0l-0.1,0c0,0,0.1,0,0.1,0.1c0.3-0.1,0.2,0,0.4-0.1c-0.1,0-0.3,0.1-0.3,0.1c0.1,0,0.2,0,0.4-0.1
							c-0.3,0.1-0.2,0.1-0.4,0.1c0,0,0.1,0,0.3,0c0.1,0,0.1,0,0.2-0.1c0,0-0.1,0-0.2,0.1l0,0c0.4,0-0.7,0.3-0.2,0.2l0,0l0.3,0
							c0,0-0.2,0-0.3,0.1c0.4,0,0,0.1,0.2,0.1c-0.7,0.2,0.1,0.1-0.4,0.2l0.2,0c0.2,0-0.1,0-0.1,0c0.1,0,0.2,0,0.3,0
							c0.2,0-0.2,0.2-0.4,0.3c0,0,0.9-0.1,0.5,0l-0.3,0c0.4,0,0,0.1,0.3,0.1c-0.1,0-0.2,0-0.2,0c-0.2,0,0,0,0.2,0c0,0-0.2,0-0.3,0
							c-0.1,0,0.3,0,0.1,0c0,0-0.1,0-0.1,0c0.1,0,0,0,0.2,0c-0.1,0,0.1,0,0,0.1c0.3,0-0.1,0.1,0.3,0c-0.4,0.1-0.4,0.1-0.1,0.1
							c-0.1,0-0.1,0-0.3,0c0,0,0.1,0,0.3,0c-0.5,0.1,0.4,0-0.2,0.1c0.2,0,0.4,0.1,0.5,0.1c-0.4,0,0,0-0.5,0c0.2,0,0.6,0,0.5,0.1
							c-0.1,0-0.2,0-0.3,0c0.2,0,0,0.1,0.2,0.1c0,0-0.1,0-0.1,0c0,0-0.1,0,0.1,0l-0.1,0c0.3,0,0.6,0,0.8,0c-0.6,0-0.1,0.1-0.9,0.1
							c0,0,0.1,0,0.3,0c0,0-0.1,0-0.3,0c0.1,0,0.3,0,0.3,0c-0.1,0-0.1,0-0.3,0c0.2,0,0.4,0,0.3,0c-0.1,0-0.1,0-0.1,0
							c0,0,0.5,0,0.3,0.1c-0.4,0-0.1,0-0.5,0.1l0.1,0l0.2,0c0,0,0.3,0,0.1,0l-0.2,0l0.1,0l0.1,0c0.2,0,0.5,0,0.4,0.1
							c0,0,0,0.1-0.2,0.1h0c0.1,0,0.2-0.1,0.2-0.1c-0.1,0-0.4,0-0.5,0c0.3,0,0.1,0,0.4,0c-0.1,0-0.3,0-0.3,0l0.3,0
							c-0.1,0-0.1,0-0.3,0c0,0,0.5,0,0.3,0c0,0-0.1,0-0.1,0c-0.1,0,0.2,0,0,0.1c-0.4,0-0.1,0-0.4,0c0.1,0,0.5,0.1,0.4,0.1l0,0
							c0.5,0-0.3,0,0,0c0,0-0.2-0.1-0.2-0.1c-0.1,0,0.1-0.1,0.3-0.1h-0.1c-0.1,0-0.1,0.2-0.1,0.2c0.1,0,0.1,0.1,0.3,0.1
							c-0.8,0.1,0.4,0.1-0.2,0.2c0,0-0.1,0-0.1,0l0.1,0c0.2,0,0.1,0,0.3,0c0.1,0,0.2,0,0.2,0c-0.2,0-0.4,0-0.5,0c0.1,0,0.1,0,0.2,0
							c-0.4,0,0.5,0,0.2,0l-0.1,0c0.1,0,0.2,0,0.2,0c-0.3,0-0.1,0-0.3,0c0,0,0.5,0,0.2,0c-0.1,0-0.1,0-0.2,0c-0.3,0-0.2,0-0.3,0l0,0
							l-0.1,0l0.1,0c0.7,0,0.1,0,0.6,0.1c-0.4,0-0.3,0-0.6,0c-0.1,0-0.2,0-0.3,0c0.2,0-0.2,0,0.2,0c-0.1,0,0,0-0.3,0
							c0.1,0,0.2,0,0.3,0c0.3,0-0.4,0.1,0.1,0.1c0.2,0,0.5,0,0.7,0.1c-0.2,0-0.4,0-0.4,0c-0.1,0-0.1,0,0,0c-0.1,0-0.2,0-0.3,0
							c0,0,0.4,0,0.2,0c-0.1,0-0.3,0-0.4,0c0.1,0,0.3,0,0.4,0c-0.2,0-0.3,0-0.4,0c0.1,0,0.2,0,0.4,0l0.1,0c0,0-0.2,0-0.3,0
							c-0.2,0,0.1,0,0.2,0l0.1,0c0.6,0-0.1,0-0.1-0.1l0.4,0l-0.3,0c0.1,0,0.3,0,0.4,0c0.2,0-0.1,0,0.1,0c0,0,0.1,0,0.1,0l-0.1,0
							c0.1,0,0.3,0,0.2,0c0.2,0-0.3,0,0,0h0c-0.1,0-0.3,0-0.7,0l0.8,0h-0.3c0,0,0-0.1,0.2-0.1c-0.2,0-0.1,0-0.3,0
							c0.3,0-0.1-0.1,0.4-0.1c-0.2,0-0.2,0-0.3,0c0.5,0-0.1,0,0.1,0c0.3,0,0.1,0,0.4,0c-0.5,0,0.1,0,0-0.1c-0.4,0-0.2,0-0.3-0.1
							c0.1,0,0.2-0.1,0.3-0.1l0.1,0c-0.4,0-0.3,0-0.4,0c0.2,0,0.3,0,0.4,0l0,0c-0.1,0-0.2,0-0.2,0l0.3,0c0,0-0.3,0-0.1-0.1
							c-0.3,0-0.7,0-0.9,0c0.1,0,0.4,0,0.4,0c0,0-0.1,0-0.1,0l0.2,0c0.1,0-0.2,0-0.2,0c0.2,0,0.1,0,0.3,0c0,0-0.1,0,0,0
							c0,0,0.2,0,0.3,0c-0.1,0-0.3,0-0.3,0c0,0,0.2,0,0.3,0c-0.1,0,0,0-0.3,0c0,0,0.1,0,0.2,0c-0.1,0,0-0.1-0.4,0l0,0c0,0,0,0,0,0v0
							v0c-0.3,0,0.2-0.1,0-0.1l0.1,0c-0.1,0-0.1,0-0.3-0.1c0,0,0.2,0,0.3,0c-0.1,0-0.2,0,0,0c0.2,0,0.2,0,0.1,0c0.1,0,0.2,0,0-0.1
							c0.3,0,0.3,0,0.2,0l-0.2,0c0,0,0,0,0,0l0.3,0c0.4-0.1-0.7,0,0-0.1c-0.2,0-0.2,0-0.4,0c0,0,0.5-0.1,0.5-0.1c0.2,0-0.5,0-0.4,0
							c-0.1,0-0.4,0-0.5,0c0,0,0.5-0.1,0.6-0.1c0,0,0,0-0.1,0c0,0,0.1,0,0.2,0l-0.1,0c0.1,0,0.1,0,0.3-0.1c-0.1,0-0.2,0-0.3,0
							c0.2,0,0,0,0.1-0.1c-0.1,0-0.2,0-0.2,0c0.1-0.1-0.2,0-0.3,0c0.2,0,0.4,0,0.3,0c0.1,0,0.3,0,0.4,0c-0.2,0,0.1-0.1,0.2-0.1
							l0.1,0c-0.1,0-0.1,0-0.1,0l-0.2,0c0,0,0,0,0.1,0c-0.2,0-0.4,0-0.6,0c0.1,0-0.1,0,0.2-0.1c-0.1,0,0.3,0,0.4,0c0,0,0,0,0,0
							c0,0,0.1,0,0.1,0c0.3-0.1-0.4,0-0.4,0c0.2,0,0.3,0,0.3,0c0,0-0.3,0-0.4,0c0.1,0-0.1,0-0.1,0l-0.1,0c-0.2,0-0.2,0-0.2,0
							c0.1,0,0.1,0,0.2,0c-0.3,0,0.3-0.1,0.1-0.1c0.1,0,0.3,0,0.4,0c-0.2,0,0.2-0.1,0-0.1c-0.2,0-0.2,0-0.4,0l0.2,0l-0.3,0
							c0,0,0.2,0,0.1,0c-0.2,0-0.1,0-0.3,0c0.4-0.1-0.2,0,0-0.1l0.6-0.1c0.3-0.1-0.3,0-0.2-0.1l-0.1,0c-0.2,0,0,0-0.1,0
							c0.2,0,0.3,0,0.4-0.1c-0.1,0,0,0-0.4,0l0.3,0c0.1,0-0.6,0-0.5,0c0.2,0,0.4,0,0.5,0c0,0,0,0-0.1,0c0.1,0-0.3,0-0.1,0
							c-0.1,0-0.3,0-0.3,0c0,0,0.1,0,0.1,0c-0.1,0-0.1,0-0.3,0c0.6-0.1-0.1-0.1,0.5-0.2c-0.1,0-0.1,0-0.2-0.1c0.1,0,0.1,0,0.1,0
							c0.2-0.1-0.6,0.1-0.4,0c0.3-0.1,0.2,0.2,0.3,0.2c0.6-0.1-0.1,0.1,0.3,0.1h0c0.2-1-0.2-0.2-0.2-0.3c0,0,0.1-0.1,0.1-0.1
							c-0.3,0-0.4-0.1-0.5-0.1c0.3,0,0.1,0,0.4-0.1c0,0-0.4,0-0.5,0c0.1,0,0.3-0.1,0.5-0.1l0,0c0.4-0.1,0,0,0-0.1l0.2,0
							c-0.1,0-0.4,0-0.4,0l-0.1,0c-0.4,0,0.2,0-0.1,0l0.4-0.1c-0.1,0-0.4,0-0.5,0c0.3,0,0.4,0,0.6,0c0,0,0,0-0.2,0c0,0,0.1,0,0.1,0
							c-0.3,0-0.5,0-0.5,0c0.8-0.1,0.2-0.1,0.8-0.2c-0.3,0,0.1-0.1,0.1-0.2c-0.6,0.1,0,0-0.6,0.1c0,0,0,0,0,0l0.4-0.1
							c0.2,0,0.1,0,0.3,0c0,0,0.3-0.1,0.4-0.1c-0.2,0-0.3,0-0.2,0l-0.3,0.1c-0.3,0,0.5-0.1,0.2-0.1l0.2,0c-0.1,0,0-0.1-0.5,0
							c0.1,0,0.2-0.1,0.3-0.1c0.1-0.1-0.5,0-0.2-0.1l0.1,0c0,0-0.3,0-0.1,0c0.1,0,0.1,0,0.2,0c-0.1,0-0.3,0-0.2,0l0.2,0
							c0.2-0.1-0.4,0-0.5,0c0.4-0.1,0.6-0.2,0.6-0.2l0.1,0c0-0.1-0.4,0-0.6,0c0.5-0.1,0.2-0.1,0.4-0.3c-0.1,0-0.3,0.1-0.4,0.1
							c0.1,0-0.3,0,0.1-0.1l0,0c0.4-0.1,0.3-0.1,0.3-0.1l-0.5,0.1c0.7-0.2-0.3-0.1,0.4-0.3c-0.1,0-0.1,0-0.3,0l0.3-0.1
							c0.1-0.1,0.1-0.1,0-0.1l0.2,0c0,0-0.8,0.2-0.8,0.2l0.4-0.1c0,0,0.3-0.2,0-0.1c0.1,0,0.2,0,0.2,0c0,0,0.3-0.1-0.3,0
							c0.4-0.1,0-0.1-0.1,0l0.3-0.1c-0.3,0.1-0.4,0.1-0.5,0.1c0,0,0.2-0.1,0.1,0c0.1-0.1-0.3,0.1-0.1,0l0.2,0c0,0-0.1,0-0.3,0
							c-0.1,0,0.1-0.1,0.3-0.1c-0.1,0-0.3,0.1-0.3,0.1c0.1,0,0.1,0,0.2,0c0.2-0.1-0.3,0-0.1-0.1c0.1,0,0.1,0,0.2,0c0,0,0,0.1,0,0.1
							c0.2-0.1,0.3-0.1,0.6-0.2c-0.2,0-0.6,0.1-0.5,0.1c0,0,0,0,0.1,0l0,0c0,0,0,0,0,0c0,0,0.1,0,0.1,0c0.2-0.1,0.1-0.1,0.1-0.1
							c-0.3,0.1-0.2,0.1-0.4,0.1c0,0,0,0,0,0c0,0,0,0,0,0l0,0c0,0,0,0,0,0c-0.1,0-0.3,0.1-0.1,0c-0.2,0-0.4,0.1-0.4,0.1
							c0.4-0.1,0.6-0.2,0.8-0.3c-0.2,0-0.1-0.1-0.6,0.1c-0.1,0,0.1-0.1,0.2-0.1c0.1,0,0,0,0.1,0c-0.1,0-0.1,0-0.4,0.1
							c0.2-0.1,0.3-0.1,0.3-0.1l0.1,0c0.5-0.2-0.9,0.2-0.2-0.1c0,0-0.1,0-0.1,0c0.3-0.2-0.4-0.1,0.1-0.3c0.1-0.1-0.1,0-0.3,0.1
							l0.3-0.1l-0.3,0.1c-0.3,0.1,0.7-0.3,0.2-0.2l-0.2,0.1c0,0-0.1,0,0.1-0.1c0,0-0.2,0.1-0.1,0l0.1-0.1l-0.3,0.1
							c0.1-0.1,0.6-0.2,0.6-0.3c-0.1,0-0.4,0.1-0.5,0.2c0,0-0.1,0-0.2,0.1l-0.1,0c-0.4,0.2-0.9,0.3-1.2,0.5l0.3-0.1l-0.2,0.1l0,0
							c-0.2,0.1,0,0,0.1,0c-0.1,0-0.2,0.1-0.2,0.1l0.4-0.1c-0.2,0.1-0.3,0.1-0.4,0.2c0.2-0.1,0.4-0.1,0.5-0.2
							c-0.2,0.1-0.4,0.1-0.2,0.1c-0.1,0-0.2,0.1-0.2,0.1c0.1,0,0.1,0,0.3-0.1c-0.2,0.1,0.1,0-0.3,0.2c0.1,0,0.3-0.1,0.4-0.1
							c-0.5,0.2,0,0-0.6,0.2c0.5-0.1,0.2,0,0.5-0.1c0,0-0.1,0-0.1,0c0,0-0.2,0.1-0.2,0.1c0.4-0.1,0.5-0.1,0.7-0.2
							c-0.4,0.1-0.4,0.1-0.8,0.3c0.3-0.1,0.3-0.1,0.6-0.2c-0.2,0.1-0.1,0-0.4,0.2c0.5-0.2,0.1,0,0.4-0.1c-0.2,0.1-0.4,0.1-0.3,0.1
							C146.3,129.2,146.1,129.3,146.1,129.3z M147.1,129.5L147.1,129.5C147.1,129.5,147,129.5,147.1,129.5
							C147,129.5,147.1,129.5,147.1,129.5z M147.1,129.5C147.1,129.5,147.1,129.5,147.1,129.5c0.1,0,0.2-0.1,0.2-0.1
							C147.2,129.5,147.2,129.5,147.1,129.5z M148.9,128.9C149,128.9,148.9,128.9,148.9,128.9c-0.1,0-0.1,0-0.1,0l0,0
							C148.8,128.9,148.9,128.9,148.9,128.9z"/>
						<path class="st0" d="M148.6,129C148.6,129,148.5,129,148.6,129C148.5,129,148.5,129,148.6,129L148.6,129L148.6,129z"/>
						<path class="st0" d="M148.8,133.3L148.8,133.3C148.8,133.3,148.8,133.3,148.8,133.3C148.8,133.3,148.8,133.3,148.8,133.3z"/>
						<polygon class="st0" points="146.7,130.2 146.8,130.2 146.7,130.2 						"/>
						<path class="st0" d="M147.9,133.6C147.9,133.6,147.8,133.6,147.9,133.6C147.8,133.6,147.9,133.6,147.9,133.6z"/>
						<path class="st0" d="M147.8,133.7L147.8,133.7C147.8,133.7,147.8,133.7,147.8,133.7z"/>
						<path class="st0" d="M147.7,133.7c0,0,0.1,0,0.1,0l0,0L147.7,133.7z"/>
						<path class="st0" d="M147.3,132.5C147.3,132.5,147.3,132.5,147.3,132.5C147.2,132.5,147.2,132.5,147.3,132.5z"/>
						<path class="st0" d="M148,132.8c-0.1,0-0.1,0-0.1,0C147.8,132.8,147.8,132.8,148,132.8z"/>
						<polygon class="st0" points="146.9,132.1 146.9,132.1 146.9,132.1 						"/>
						<path class="st0" d="M147.8,132.8C147.8,132.8,147.8,132.8,147.8,132.8C147.9,132.8,147.9,132.8,147.8,132.8z"/>
						<path class="st0" d="M147.6,134.1L147.6,134.1C147.6,134.1,147.6,134.1,147.6,134.1L147.6,134.1z"/>
						<path class="st0" d="M147.6,134.1L147.6,134.1C147.6,134.1,147.6,134.1,147.6,134.1z"/>
						<path class="st0" d="M147.7,134.1L147.7,134.1C147.6,134.1,147.6,134.1,147.7,134.1z"/>
						<path class="st0" d="M147.7,134c0,0-0.2,0-0.2,0L147.7,134C147.4,134,147.8,134,147.7,134z"/>
						<path class="st0" d="M148.9,133.8L148.9,133.8c0,0,0.2,0,0.2,0C149.4,133.8,148.9,133.8,148.9,133.8z"/>
						<path class="st0" d="M149.1,133.7c0.1,0,0.2,0,0.2,0C149.2,133.7,149.2,133.7,149.1,133.7z"/>
						<path class="st0" d="M149.1,133.1l0.3,0C149.3,133,149.2,133.1,149.1,133.1z"/>
						<polygon class="st0" points="147.7,133 147.6,133 147.8,133 						"/>
						<polygon class="st0" points="149.5,132.8 149.6,132.8 149.5,132.8 						"/>
						<path class="st0" d="M149.3,131.7l-0.3,0C149.1,131.8,149.4,131.7,149.3,131.7z"/>
						<path class="st0" d="M149,131.3C149.1,131.3,149.2,131.2,149,131.3C149,131.3,148.9,131.3,149,131.3z"/>
						<polygon class="st0" points="149.2,129.8 149.3,129.8 149.2,129.8 						"/>
					</g>
				</g>
			</g>
		</g>
	</g>
</g>
</svg>
