<svg id="Layer_1" data-name="Layer 1" xmlns="http://www.w3.org/2000/svg" viewBox="0 0 279.19 65"><defs><style>.cls-1{fill:#4ca6be;}.cls-2{fill:#fff;}.cls-3{fill:none;stroke:#4ca6be;stroke-miterlimit:10;stroke-width:3px;}</style></defs><title>MoodSelector</title><rect class="cls-1" width="279.19" height="65"/><circle id="_Path_" data-name="&lt;Path&gt;" class="cls-2" cx="164.59" cy="24.5" r="17.5"/><g id="_Group_" data-name="&lt;Group&gt;"><ellipse id="_Path_2" data-name="&lt;Path&gt;" class="cls-1" cx="158.64" cy="21.5" rx="2.05" ry="3.11"/><ellipse id="_Path_3" data-name="&lt;Path&gt;" class="cls-1" cx="170.55" cy="21.5" rx="2.05" ry="3.11"/></g><path id="_Path_4" data-name="&lt;Path&gt;" class="cls-3" d="M156.73,33.26s5.08-5.43,11.72-2.79"/><circle id="_Path_5" data-name="&lt;Path&gt;" class="cls-2" cx="214.59" cy="24.5" r="17.5"/><path id="_Path_6" data-name="&lt;Path&gt;" class="cls-3" d="M223.12,33.14s-8.11-7.39-17,0"/><g id="_Group_2" data-name="&lt;Group&gt;"><ellipse id="_Path_7" data-name="&lt;Path&gt;" class="cls-1" cx="208.64" cy="21.5" rx="2.05" ry="3.11"/><ellipse id="_Path_8" data-name="&lt;Path&gt;" class="cls-1" cx="220.55" cy="21.5" rx="2.05" ry="3.11"/></g><circle id="_Path_9" data-name="&lt;Path&gt;" class="cls-2" cx="64.59" cy="24.5" r="17.5"/><g id="_Group_3" data-name="&lt;Group&gt;"><ellipse id="_Path_10" data-name="&lt;Path&gt;" class="cls-1" cx="70.79" cy="21.5" rx="2.05" ry="3.11"/><path id="_Path_11" data-name="&lt;Path&gt;" class="cls-1" d="M61.79,23.27c0-1.5-.5-3.65-2.72-3.65-2.44,0-2.72,2.15-2.72,3.65"/></g><path id="_Path_12" data-name="&lt;Path&gt;" class="cls-1" d="M73.13,28.5H56.06S65.23,44.5,73.13,28.5Z"/><circle id="_Path_13" data-name="&lt;Path&gt;" class="cls-2" cx="114.59" cy="24.5" r="17.5"/><path id="_Path_14" data-name="&lt;Path&gt;" class="cls-3" d="M123.12,29.86s-8.11,7.39-17,0"/><g id="_Group_4" data-name="&lt;Group&gt;"><ellipse id="_Path_15" data-name="&lt;Path&gt;" class="cls-1" cx="108.64" cy="21.5" rx="2.05" ry="3.11"/><ellipse id="_Path_16" data-name="&lt;Path&gt;" class="cls-1" cx="120.55" cy="21.5" rx="2.05" ry="3.11"/></g><path class="cls-2" d="M62.66,48.94h4.22a3.87,3.87,0,0,1,2.79,1,2.71,2.71,0,0,1,.76,1.93v0a2.87,2.87,0,0,1-2.66,2.86l3,4H69.41l-2.84-3.81h-2.8v3.81H62.66V48.94Zm4.12,5c1.47,0,2.52-.76,2.52-2v0c0-1.2-.92-1.93-2.51-1.93h-3v4h3Z"/><path class="cls-2" d="M76.41,48.87h1l4.47,9.88H80.72l-1.15-2.59H74.23l-1.16,2.59H71.94Zm2.73,6.28-2.23-5-2.24,5h4.47Z"/><path class="cls-2" d="M85.17,50H81.88v-1h7.7v1H86.29v8.78H85.17V50Z"/><path class="cls-2" d="M91.65,48.94h7.09v1h-6v3.35h5.35v1H92.76v3.43h6.05v1H91.65V48.94Z"/><path class="cls-2" d="M107.82,50h-3.29v-1h7.7v1h-3.29v8.78h-1.12V50Z"/><path class="cls-2" d="M113.19,53.87v0a5,5,0,1,1,10,0v0A5,5,0,1,1,113.19,53.87Zm8.85,0v0a3.9,3.9,0,0,0-3.87-4,3.85,3.85,0,0,0-3.84,4v0a3.9,3.9,0,0,0,3.87,4A3.85,3.85,0,0,0,122,53.87Z"/><path class="cls-2" d="M125.53,48.94h3.4a4.89,4.89,0,0,1,5.21,4.87v0a4.91,4.91,0,0,1-5.21,4.9h-3.4V48.94Zm1.11,1v7.76h2.3A3.8,3.8,0,0,0,133,53.87v0A3.82,3.82,0,0,0,128.93,50h-2.3Z"/><path class="cls-2" d="M139.46,48.87h1L145,58.74h-1.19l-1.15-2.59h-5.34l-1.16,2.59H135Zm2.73,6.28-2.23-5-2.24,5h4.47Z"/><path class="cls-2" d="M148.42,54.86l-4.08-5.93h1.34l3.31,4.9,3.33-4.9h1.29l-4.08,5.91v3.89h-1.12V54.86Z"/><path class="cls-2" d="M154.7,51.63a1.12,1.12,0,0,0,.94-1.22h-0.5V48.94h1.29V50.2a1.72,1.72,0,0,1-1.55,1.92Z"/><path class="cls-2" d="M158.16,57.31l0.69-.81a4.67,4.67,0,0,0,3.36,1.39c1.32,0,2.18-.7,2.18-1.67v0c0-.91-0.49-1.43-2.55-1.86-2.26-.49-3.29-1.22-3.29-2.83v0c0-1.54,1.36-2.68,3.22-2.68a5.11,5.11,0,0,1,3.45,1.2l-0.64.85a4.31,4.31,0,0,0-2.83-1.06c-1.27,0-2.09.7-2.09,1.58v0c0,0.92.5,1.44,2.66,1.9s3.19,1.27,3.19,2.77v0c0,1.68-1.4,2.77-3.35,2.77A5.74,5.74,0,0,1,158.16,57.31Z"/><path class="cls-2" d="M172,48.94h1.12l3.57,5.35,3.57-5.35h1.12v9.81h-1.11V50.8l-3.57,5.25h-0.06L173,50.81v7.93H172V48.94Z"/><path class="cls-2" d="M183.68,53.87v0a5,5,0,1,1,10,0v0A5,5,0,1,1,183.68,53.87Zm8.85,0v0a3.9,3.9,0,0,0-3.87-4,3.85,3.85,0,0,0-3.84,4v0a3.9,3.9,0,0,0,3.87,4A3.85,3.85,0,0,0,192.54,53.87Z"/><path class="cls-2" d="M195.58,53.87v0a5,5,0,1,1,10,0v0A5,5,0,1,1,195.58,53.87Zm8.85,0v0a3.9,3.9,0,0,0-3.87-4,3.85,3.85,0,0,0-3.84,4v0a3.9,3.9,0,0,0,3.87,4A3.85,3.85,0,0,0,204.44,53.87Z"/><path class="cls-2" d="M207.92,48.94h3.4a4.89,4.89,0,0,1,5.21,4.87v0a4.91,4.91,0,0,1-5.21,4.9h-3.4V48.94ZM209,50v7.76h2.3a3.8,3.8,0,0,0,4.06-3.85v0A3.82,3.82,0,0,0,211.32,50H209Z"/></svg>