<?xml version="1.0" encoding="utf-8"?>
<!-- Generator: Adobe Illustrator 19.2.1, SVG Export Plug-In . SVG Version: 6.00 Build 0)  -->
<svg version="1.1" id="Layer_1" xmlns="http://www.w3.org/2000/svg" xmlns:xlink="http://www.w3.org/1999/xlink" x="0px" y="0px"
	 viewBox="0 0 100 100" style="enable-background:new 0 0 100 100;" xml:space="preserve">
<style type="text/css">
	.st0{fill:#FFFFFF;}
	.st1{fill:#FFFFFF;stroke:#7AC943;stroke-width:0.5;}
</style>
<g id="XMLID_165_">
	<path id="XMLID_322_" class="st0" d="M61.5,24.5v21.7l-2.7-2.6v8.3c0,1.9-0.2,3.2-1.1,4.3l0,0c0,0.1-0.1,0.1-0.1,0.2l3.1,2.9h10.5
		V24.5"/>
	<path id="XMLID_321_" class="st0" d="M38.5,38.3c0,0,4.3,4,4.6,4.4c-0.4-1.5-0.7-3.5,0.1-4.8l0.4-0.7c-0.4-2.4-0.3-4.8,1.2-6.5
		l0.4-0.4l-5.9-5.7H28.8v34.8h9.6"/>
	<path id="XMLID_318_" class="st1" d="M57,55.7c-1.1,1.2-2.5,3-2.2,4.3v0c0.2,1.1,1.7,1.7,1.7,1.7l3.2,1.8l-2.1,1.8l2.5,0.8
		c0,0-2.3,2.4-2.6,2.6c-0.7,0.1-1.4,0.2-2.1,0.2c-5.4,0-12.8-3.2-14.6-3.2c-2.2,0-5,1.3-5,1.3l1.5-1.6c0,0-1.9,0.4-3.8,0.2l2.6-1.8
		c-2.3-0.1-4.3-0.8-5.2-1.4c0,0,4.2-0.3,9.9-0.3c2.3,0,6.2,0.3,6.2,0.3c-1.9-0.8-3.8-1.9-4.5-3.8l3.7,0.6c-1.6-1-3.8-3.3-4.2-5.2
		l4.1,1.4c-0.7-0.8-3.3-3.2-3.7-5.9l3.3,2.1c-0.9-0.9-3.2-5.4-2.8-6.8l3,2c-1.5-1.8-3.2-6.6-2-8.4c0.9,3.6,3,4.9,3,4.9
		c-1.4-2-4.3-8.9-1.5-11.9c0.7,6.9,3.7,9.2,3.7,9.2c-2.4-3.9-5.2-15.8,0-18.2c-1,7.6,1.4,11.8,1.4,11.8c-1.5-7-1.5-17,3.7-17.9
		c-2.6,7.5-0.7,13.3-0.7,13.3c-0.4-17.6,5.3-17.3,5.3-17.3s-0.9,5-0.9,13.9v25.7C57.9,53.7,57.8,54.7,57,55.7 M60.4,61.9
		c2.3,0.2,3.9,0.3,5.5,0.5c0.6,0.1,0.9,0.8,0.9,1.1c-0.8-0.2-2-0.2-2-0.2l-0.1,0.7c0,0,1.1-0.3,2.2-0.3c0,0,2.4,0,2.3,1.6
		c-0.6-0.4-2-0.3-2.3-0.2c-1.2,0.2-2.3,0.7-3.6,1.4c-1.2,0.6-2.5,1.3-4,1.8c0.7-0.6,2.4-2.6,2.4-2.6L59.4,65l1.9-1.7l-2.9-1.6
		C59.1,61.8,59.8,61.9,60.4,61.9"/>
	<path id="XMLID_316_" class="st0" d="M34.8,75.9c0.7,0,1.4,0.6,1.4,1.3c0,0.7-0.6,1.3-1.4,1.3c-0.7,0-1.4-0.6-1.4-1.3
		C33.4,76.5,34,75.9,34.8,75.9"/>
	<path id="XMLID_288_" class="st0" d="M69.7,75.9c0.7,0,1.4,0.6,1.4,1.3c0,0.7-0.6,1.3-1.4,1.3c-0.7,0-1.4-0.6-1.4-1.3
		C68.4,76.5,69,75.9,69.7,75.9"/>
	<path id="XMLID_285_" class="st0" d="M25.3,82.7v4.8h-2.1v-0.8c-0.6,0.6-1.2,1-2.3,1c-1.7,0-3-1-3-2.5c0-2.3,2.5-2.9,4.9-2.9h0.3
		c0-0.6-0.3-1.2-1.6-1.2c-0.9,0-1.6,0.3-2.1,0.8l-1.3-1.3c0.9-0.9,2.1-1.3,3.5-1.3c1.4,0,2.1,0.2,2.9,0.9
		C25.2,80.8,25.3,82,25.3,82.7 M23.1,84h-0.2c-0.4,0-1.2,0-1.9,0.2c-0.4,0.1-0.8,0.4-0.8,0.8c0,0.6,0.6,0.8,1.1,0.8
		c1.1,0,1.8-0.7,1.8-1.6V84z"/>
	<path id="XMLID_284_" class="st0" d="M30,79.5V77h-2.3v2.5h-1.6v1.9h1.6v3.4c0,1.1,0.2,1.8,0.6,2.3c0.4,0.4,1.1,0.6,2.1,0.6
		c0.6,0,1.2-0.1,1.7-0.3v-1.8c-0.3,0.1-0.7,0.2-1.2,0.2c-0.7,0-0.9-0.4-0.9-1v-3.3h2.1v-1.9"/>
	<path id="XMLID_281_" class="st0" d="M90.4,83.7v0.6h-5.9c0,0.8,1,1.5,2.1,1.6c1,0,1.6-0.4,2.1-0.9l1.5,1.1c-0.9,1.1-2,1.8-3.5,1.8
		c-2.5,0-4.5-1.5-4.5-4.2c0-2.1,1.3-4.2,4.2-4.2C89.3,79.3,90.4,81.6,90.4,83.7 M88,82.6c-0.1-0.9-0.6-1.5-1.7-1.5
		c-1,0-1.6,0.7-1.7,1.5H88z"/>
	<polyline id="XMLID_279_" class="st0" points="14,75.9 14,83.8 9.1,75.9 6,75.9 6,87.5 8.5,87.5 8.5,79.4 13.6,87.5 16.6,87.5 
		16.6,75.9 	"/>
	<polyline id="XMLID_278_" class="st0" points="65.4,79.5 64.1,84.5 62.8,79.5 60.4,79.5 59.1,84.5 57.8,79.5 55.3,79.5 57.9,87.5 
		60.2,87.5 61.5,82.5 63.1,87.5 65.2,87.5 67.8,79.5 	"/>
	<rect id="XMLID_275_" x="33.6" y="79.5" class="st0" width="2.3" height="8"/>
	<rect id="XMLID_274_" x="68.6" y="79.5" class="st0" width="2.3" height="8"/>
	<path id="XMLID_257_" class="st0" d="M53.9,80c-0.5-0.5-1.1-0.7-2-0.7c-0.9,0-1.9,0.4-2.4,1.1v-0.9h-2.2v8h2.3v-4.4
		c0-0.6,0.2-1,0.4-1.3c0.2-0.3,0.6-0.4,1-0.5c0.5,0,0.8,0.2,1,0.5c0.2,0.3,0.3,0.9,0.3,1.6v4.1h2.3v-5C54.6,81.5,54.5,80.7,53.9,80"
		/>
	<path id="XMLID_191_" class="st0" d="M80.9,75.9v11.7h-2.2v-0.9c-0.5,0.6-1.3,1.1-2.5,1.1c-1.1,0-2.1-0.4-2.8-1.1
		c-0.8-0.8-1.2-1.9-1.2-3.1c0-2.4,1.6-4.2,3.9-4.2c1,0,1.8,0.3,2.4,0.9v-4.3 M78.6,83.5c0-1.1-0.7-2.2-2-2.2c-1.3,0-2,1.1-2,2.2
		c0,1.1,0.7,2.2,2,2.2C77.9,85.7,78.6,84.6,78.6,83.5"/>
	<path id="XMLID_188_" class="st0" d="M45.9,83.5c0,2.4-1.8,4.2-4.3,4.2c-2.5,0-4.4-1.8-4.4-4.2c0-2.4,1.8-4.2,4.4-4.2
		C44.1,79.3,45.9,81.1,45.9,83.5 M41.6,81.3c-1.3,0-2,1.1-2,2.2c0,1.1,0.7,2.2,2,2.2c1.3,0,2-1.1,2-2.2
		C43.6,82.4,42.9,81.3,41.6,81.3"/>
	<path id="XMLID_166_" class="st0" d="M91.5,78.7h0.4v-0.9h0.3l0.5,0.9h0.4l-0.6-0.9c0.3,0,0.5-0.2,0.5-0.6c0-0.4-0.2-0.6-0.7-0.6
		h-0.8 M91.8,77h0.3c0.2,0,0.5,0,0.5,0.3c0,0.3-0.3,0.3-0.5,0.3h-0.3V77z M90.3,77.7c0,1,0.8,1.8,1.8,1.8c1,0,1.8-0.8,1.8-1.8
		s-0.8-1.8-1.8-1.8C91.2,75.9,90.3,76.7,90.3,77.7 M90.7,77.7c0-0.8,0.7-1.5,1.5-1.5c0.8,0,1.5,0.7,1.5,1.5c0,0.8-0.7,1.5-1.5,1.5
		C91.3,79.2,90.7,78.5,90.7,77.7"/>
</g>
</svg>
