<svg id="Layer_1" data-name="Layer 1" xmlns="http://www.w3.org/2000/svg" viewBox="0 0 75 75"><defs><style>.cls-1{fill:#fff;}.cls-2{fill:#7dc74d;}</style></defs><title>Untitled-1</title><circle id="_Ellipse_" data-name="&lt;Ellipse&gt;" class="cls-1" cx="37.5" cy="37.5" r="37.5"/><g id="_Group_" data-name="&lt;Group&gt;"><g id="_Group_2" data-name="&lt;Group&gt;"><g id="_Group_3" data-name="&lt;Group&gt;"><path id="_Path_" data-name="&lt;Path&gt;" class="cls-2" d="M53.29,20.57c-1.17-3.1-4.16-4.26-7.32-3.36a0.65,0.65,0,0,0,0,1.25c2,0.61,5.8.51,5.16,4.17-0.36,2.07-2.2,4.26-3.28,6-2.22,3.61-4.71,7.05-7.07,10.58-2,3-4,5.91-6.07,8.83a8.24,8.24,0,0,0-3.45-2.28,9.11,9.11,0,0,0-6-.73,0.68,0.68,0,0,0,0,1.31,38.44,38.44,0,0,1,5.1,1.45c1.1,0.5,2,1.41,3.14,1.9-1.94,2.71-6.17,4.13-9.55,5.46-0.28-3.7-.93-8.39.76-11.34C26.61,40.63,29,37.65,31,34.53s4-6.43,5.89-9.71c1.63-2.84,3.83-6,4.41-9.25a0.45,0.45,0,0,0-.75-0.44c-2.62,2.6-4.19,6.58-6,9.75-2.13,3.63-4.38,7.19-6.71,10.7-2,3.06-4.71,6-6,9.43-0.59,1.55-.25,3.65-0.23,5.25q0,3.35.07,6.71A1.24,1.24,0,0,0,23.51,58c5-2.16,9.86-3.53,13.1-8,3.73-5.16,7.15-10.49,10.52-15.89,1.57-2.51,3-5.09,4.57-7.63C52.6,25,54,22.42,53.29,20.57Z"/></g></g><g id="_Group_4" data-name="&lt;Group&gt;"><g id="_Group_5" data-name="&lt;Group&gt;"><path id="_Path_2" data-name="&lt;Path&gt;" class="cls-2" d="M52.74,57.07a10.75,10.75,0,0,1-7-.39A3.6,3.6,0,0,0,44,57c-1.5.4-2.17,1-3.61,0.77,0.2-4.16-10.4,0-11.92.57-0.37.14-.36,0.78,0.1,0.74,1.23-.09,2.44-0.24,3.66-0.43,0.38-.06,6.26-1.16,6-0.4a1,1,0,0,0,.72,1.27,6.13,6.13,0,0,0,3.62.32,12.1,12.1,0,0,0,2.06-.72c0.39-.16,2.66.58,3.41,0.76a5.16,5.16,0,0,0,5.39-1.91C53.75,57.49,53.19,57,52.74,57.07Z"/></g></g></g></svg>