<svg id="Layer_1" data-name="Layer 1" xmlns="http://www.w3.org/2000/svg" viewBox="0 0 25 25"><defs><style>.cls-1{fill:#7dc74d;}.cls-2{fill:#fff;}</style></defs><title>Return_Button</title><circle class="cls-1" cx="12.5" cy="12.5" r="12.5"/><path class="cls-2" d="M3.44,12.5a0.39,0.39,0,0,0,.2.34l7.75,4.48A0.39,0.39,0,0,0,12,17V15a6.33,6.33,0,0,1,2.43-.41,11.74,11.74,0,0,1,6,1.84l0.22,0.13L21,16.75a0.39,0.39,0,0,0,.52-0.56l-0.24-.34A15.07,15.07,0,0,0,12,9.9h0V8a0.39,0.39,0,0,0-.59-0.34L3.63,12.16A0.39,0.39,0,0,0,3.44,12.5Z"/></svg>